<svg version="1.1" viewBox="0.0 0.0 850.1391076115485 424.79265091863516" fill="none" stroke="none" stroke-linecap="square" stroke-miterlimit="10" xmlns:xlink="http://www.w3.org/1999/xlink" xmlns="http://www.w3.org/2000/svg"><clipPath id="p.0"><path d="m0 0l850.1391 0l0 424.79266l-850.1391 0l0 -424.79266z" clip-rule="nonzero"/></clipPath><g clip-path="url(#p.0)"><path fill="#000000" fill-opacity="0.0" d="m0 0l850.1391 0l0 424.79266l-850.1391 0z" fill-rule="evenodd"/><path fill="#d9d2e9" d="m293.68372 389.5712l29.433075 -117.7323l105.33859 0l-29.433075 117.7323z" fill-rule="evenodd"/><path stroke="#000000" stroke-width="1.0" stroke-linejoin="round" stroke-linecap="butt" d="m293.68372 389.5712l29.433075 -117.7323l105.33859 0l-29.433075 117.7323z" fill-rule="evenodd"/><path fill="#000000" d="m338.88043 315.84378q-2.734375 0 -4.5625 -1.796875q-1.828125 -1.8125 -1.828125 -4.640625q0 -2.8125 1.828125 -4.625q1.828125 -1.8125 4.5625 -1.8125q2.96875 0 4.734375 2.46875l-1.3125 0.734375q-0.546875 -0.796875 -1.453125 -1.296875q-0.90625 -0.515625 -1.96875 -0.515625q-2.0625 0 -3.421875 1.4375q-1.359375 1.4375 -1.359375 3.609375q0 2.203125 1.34375 3.640625q1.359375 1.421875 3.4375 1.421875q1.0625 0 1.96875 -0.5q0.90625 -0.515625 1.453125 -1.3125l1.328125 0.734375q-1.8125 2.453125 -4.75 2.453125zm10.736633 0q-2.03125 0 -3.3125 -1.3125q-1.28125 -1.328125 -1.28125 -3.421875q0 -2.0 1.265625 -3.359375q1.28125 -1.359375 3.171875 -1.359375q1.9375 0 3.125 1.34375q1.203125 1.34375 1.203125 3.484375l0 0.359375l-7.296875 0q0.078125 1.375 1.0 2.25q0.921875 0.859375 2.25 0.859375q1.640625 0 2.78125 -1.140625l0.671875 0.921875q-1.375 1.375 -3.578125 1.375zm2.796875 -5.296875q0 -1.25 -0.828125 -2.125q-0.8125 -0.875 -2.140625 -0.875q-1.25 0 -2.078125 0.875q-0.828125 0.875 -0.875 2.125l5.921875 0zm9.722229 5.078125l0 -5.890625q0 -1.203125 -0.5625 -1.640625q-0.546875 -0.453125 -1.453125 -0.453125q-0.78125 0 -1.546875 0.421875q-0.75 0.421875 -1.125 0.984375l0 6.578125l-1.390625 0l0 -9.015625l1.390625 0l0 1.3125q0.578125 -0.671875 1.421875 -1.09375q0.859375 -0.4375 1.78125 -0.4375q2.875 0 2.875 2.90625l0 6.328125l-1.390625 0zm6.467102 0.21875q-2.0 0 -2.0 -2.109375l0 -5.890625l-1.484375 0l0 -1.234375l1.484375 0l0 -2.453125l1.40625 0l0 2.453125l1.828125 0l0 1.234375l-1.828125 0l0 5.59375q0 0.515625 0.21875 0.84375q0.234375 0.3125 0.703125 0.3125q0.578125 0 0.9375 -0.375l0.421875 1.046875q-0.578125 0.578125 -1.6875 0.578125zm3.2192993 -0.21875l0 -9.015625l1.390625 0l0 1.453125q1.25 -1.640625 3.0 -1.640625l0 1.4375l-0.546875 -0.046875q-0.640625 0 -1.40625 0.453125q-0.765625 0.453125 -1.046875 0.984375l0 6.375l-1.390625 0zm11.781586 0l0 -1.03125q-1.140625 1.25 -2.984375 1.25q-1.359375 0 -2.265625 -0.859375q-0.890625 -0.859375 -0.890625 -2.125q0 -1.296875 0.890625 -2.125q0.890625 -0.84375 2.265625 -0.84375q1.9375 0 2.984375 1.234375l0 -1.625q0 -0.90625 -0.640625 -1.390625q-0.640625 -0.5 -1.640625 -0.5q-1.578125 0 -2.75 1.25l-0.65625 -0.984375q1.4375 -1.484375 3.59375 -1.484375q1.671875 0 2.578125 0.8125q0.921875 0.796875 0.921875 2.234375l0 6.1875l-1.40625 0zm-2.484375 -0.78125q1.671875 0 2.484375 -1.125l0 -1.6875q-0.8125 -1.125 -2.484375 -1.125q-0.984375 0 -1.609375 0.546875q-0.609375 0.546875 -0.609375 1.421875q0 0.859375 0.609375 1.421875q0.625 0.546875 1.609375 0.546875zm6.691223 0.78125l0 -12.4375l1.390625 0l0 12.4375l-1.390625 0z" fill-rule="nonzero"/><path fill="#000000" d="m347.16574 337.62503l-4.71875 -5.59375l-1.25 1.421875l0 4.171875l-1.546875 0l0 -12.4375l1.546875 0l0 6.4375l5.5 -6.4375l1.953125 0l-5.1875 5.90625l5.625 6.53125l-1.921875 0zm9.274902 0l0 -1.03125q-1.140625 1.25 -2.984375 1.25q-1.359375 0 -2.265625 -0.859375q-0.890625 -0.859375 -0.890625 -2.125q0 -1.296875 0.890625 -2.125q0.890625 -0.84375 2.265625 -0.84375q1.9375 0 2.984375 1.234375l0 -1.625q0 -0.90625 -0.640625 -1.390625q-0.640625 -0.5 -1.640625 -0.5q-1.578125 0 -2.75 1.25l-0.65625 -0.984375q1.4375 -1.484375 3.59375 -1.484375q1.671875 0 2.578125 0.8125q0.921875 0.796875 0.921875 2.234375l0 6.1875l-1.40625 0zm-2.484375 -0.78125q1.671875 0 2.484375 -1.125l0 -1.6875q-0.8125 -1.125 -2.484375 -1.125q-0.984375 0 -1.609375 0.546875q-0.609375 0.546875 -0.609375 1.421875q0 0.859375 0.609375 1.421875q0.625 0.546875 1.609375 0.546875zm7.081848 0.78125l0 -7.78125l-1.5 0l0 -1.234375l1.5 0l0 -0.6875q0 -1.390625 0.6875 -2.15625q0.703125 -0.765625 1.921875 -0.765625q1.140625 0 1.90625 0.6875l-0.578125 0.90625q-0.484375 -0.4375 -1.125 -0.4375q-1.421875 0 -1.421875 1.765625l0 0.6875l1.828125 0l0 1.234375l-1.828125 0l0 7.78125l-1.390625 0zm11.014099 0l-3.234375 -4.046875l-1.5 1.46875l0 2.578125l-1.390625 0l0 -12.4375l1.390625 0l0 8.21875l4.734375 -4.796875l1.78125 0l-4.0 4.09375l4.015625 4.921875l-1.796875 0zm9.089294 0l0 -1.03125q-1.140625 1.25 -2.984375 1.25q-1.359375 0 -2.265625 -0.859375q-0.890625 -0.859375 -0.890625 -2.125q0 -1.296875 0.890625 -2.125q0.890625 -0.84375 2.265625 -0.84375q1.9375 0 2.984375 1.234375l0 -1.625q0 -0.90625 -0.640625 -1.390625q-0.640625 -0.5 -1.640625 -0.5q-1.578125 0 -2.75 1.25l-0.65625 -0.984375q1.4375 -1.484375 3.59375 -1.484375q1.671875 0 2.578125 0.8125q0.921875 0.796875 0.921875 2.234375l0 6.1875l-1.40625 0zm-2.484375 -0.78125q1.671875 0 2.484375 -1.125l0 -1.6875q-0.8125 -1.125 -2.484375 -1.125q-0.984375 0 -1.609375 0.546875q-0.609375 0.546875 -0.609375 1.421875q0 0.859375 0.609375 1.421875q0.625 0.546875 1.609375 0.546875z" fill-rule="nonzero"/><path fill="#000000" d="m348.94748 359.62503l0 -10.25l-4.234375 10.25l-0.640625 0l-4.21875 -10.25l0 10.25l-1.546875 0l0 -12.4375l2.21875 0l3.859375 9.359375l3.890625 -9.359375l2.21875 0l0 12.4375l-1.546875 0zm5.0928955 -10.296875q-0.375 0 -0.65625 -0.265625q-0.28125 -0.28125 -0.28125 -0.671875q0 -0.390625 0.28125 -0.671875q0.28125 -0.28125 0.65625 -0.28125q0.390625 0 0.671875 0.28125q0.28125 0.28125 0.28125 0.671875q0 0.390625 -0.28125 0.671875q-0.28125 0.265625 -0.671875 0.265625zm-0.6875 10.296875l0 -9.015625l1.390625 0l0 9.015625l-1.390625 0zm4.1976624 0l0 -9.015625l1.390625 0l0 1.453125q1.25 -1.640625 3.0 -1.640625l0 1.4375l-0.546875 -0.046875q-0.640625 0 -1.40625 0.453125q-0.765625 0.453125 -1.046875 0.984375l0 6.375l-1.390625 0zm6.1565857 0l0 -9.015625l1.390625 0l0 1.453125q1.25 -1.640625 3.0 -1.640625l0 1.4375l-0.546875 -0.046875q-0.640625 0 -1.40625 0.453125q-0.765625 0.453125 -1.046875 0.984375l0 6.375l-1.390625 0zm10.07843 0.21875q-1.953125 0 -3.203125 -1.328125q-1.25 -1.328125 -1.25 -3.40625q0 -2.09375 1.25 -3.40625q1.25 -1.3125 3.203125 -1.3125q1.96875 0 3.21875 1.3125q1.25 1.3125 1.25 3.40625q0 2.078125 -1.25 3.40625q-1.25 1.328125 -3.21875 1.328125zm0 -1.25q1.3125 0 2.15625 -0.96875q0.84375 -0.984375 0.84375 -2.515625q0 -1.515625 -0.84375 -2.484375q-0.84375 -0.984375 -2.15625 -0.984375q-1.296875 0 -2.15625 0.96875q-0.84375 0.96875 -0.84375 2.5q0 1.546875 0.84375 2.515625q0.84375 0.96875 2.15625 0.96875zm6.7495117 1.03125l0 -9.015625l1.390625 0l0 1.453125q1.25 -1.640625 3.0 -1.640625l0 1.4375l-0.546875 -0.046875q-0.640625 0 -1.40625 0.453125q-0.765625 0.453125 -1.046875 0.984375l0 6.375l-1.390625 0z" fill-rule="nonzero"/><path fill="#d9d2e9" d="m217.85564 222.79953l18.716537 -74.866135l65.09448 0l-18.716522 74.866135z" fill-rule="evenodd"/><path stroke="#000000" stroke-width="1.0" stroke-linejoin="round" stroke-linecap="butt" d="m217.85564 222.79953l18.716537 -74.866135l65.09448 0l-18.716522 74.866135z" fill-rule="evenodd"/><path fill="#d9d2e9" d="m319.16403 222.79953l18.716553 -74.866135l65.09448 0l-18.716522 74.866135z" fill-rule="evenodd"/><path stroke="#000000" stroke-width="1.0" stroke-linejoin="round" stroke-linecap="butt" d="m319.16403 222.79953l18.716553 -74.866135l65.09448 0l-18.716522 74.866135z" fill-rule="evenodd"/><path fill="#d9d2e9" d="m420.47244 222.79953l18.716522 -74.866135l65.09451 0l-18.716553 74.866135z" fill-rule="evenodd"/><path stroke="#000000" stroke-width="1.0" stroke-linejoin="round" stroke-linecap="butt" d="m420.47244 222.79953l18.716522 -74.866135l65.09451 0l-18.716553 74.866135z" fill-rule="evenodd"/><path fill="#000000" fill-opacity="0.0" d="m24.159899 151.57118l178.77165 0l0 67.590546l-178.77165 0z" fill-rule="evenodd"/><path fill="#000000" d="m61.056103 178.49118l-3.171875 -4.9375l-2.484375 0l0 4.9375l-1.546875 0l0 -12.4375l5.0 0q1.75 0 2.828125 1.046875q1.078125 1.03125 1.078125 2.703125q0 1.5625 -0.90625 2.53125q-0.90625 0.953125 -2.328125 1.078125l3.359375 5.078125l-1.828125 0zm-2.390625 -6.3125q1.125 0 1.796875 -0.65625q0.6875 -0.65625 0.6875 -1.71875q0 -1.0625 -0.6875 -1.71875q-0.671875 -0.65625 -1.796875 -0.65625l-3.265625 0l0 4.75l3.265625 0zm10.5461235 6.53125q-2.03125 0 -3.3125 -1.3125q-1.28125 -1.328125 -1.28125 -3.421875q0 -2.0 1.265625 -3.359375q1.28125 -1.359375 3.171875 -1.359375q1.9375 0 3.125 1.34375q1.203125 1.34375 1.203125 3.484375l0 0.359375l-7.296875 0q0.078125 1.375 1.0 2.25q0.921875 0.859375 2.25 0.859375q1.640625 0 2.78125 -1.140625l0.671875 0.921875q-1.375 1.375 -3.578125 1.375zm2.796875 -5.296875q0 -1.25 -0.828125 -2.125q-0.8125 -0.875 -2.140625 -0.875q-1.25 0 -2.078125 0.875q-0.828125 0.875 -0.875 2.125l5.921875 0zm7.2534637 8.734375q-1.15625 0 -2.0 -0.28125q-0.828125 -0.28125 -1.640625 -1.0625l0.71875 -1.046875q0.5625 0.671875 1.25 0.953125q0.703125 0.28125 1.671875 0.28125q1.390625 0 2.140625 -0.71875q0.75 -0.71875 0.75 -1.984375l0 -1.296875q-0.484375 0.703125 -1.28125 1.15625q-0.78125 0.453125 -1.734375 0.453125q-1.828125 0 -2.921875 -1.28125q-1.09375 -1.296875 -1.09375 -3.375q0 -2.171875 1.109375 -3.421875q1.109375 -1.265625 2.90625 -1.265625q1.859375 0 3.015625 1.578125l0 -1.359375l1.40625 0l0 8.75q0 1.90625 -1.125 2.90625q-1.109375 1.015625 -3.171875 1.015625zm0.203125 -4.78125q0.765625 0 1.515625 -0.40625q0.765625 -0.40625 1.171875 -1.0625l0 -3.9375q-0.40625 -0.65625 -1.171875 -1.046875q-0.765625 -0.40625 -1.515625 -0.40625q-1.3125 0 -2.109375 0.953125q-0.78125 0.953125 -0.78125 2.484375q0 1.546875 0.796875 2.484375q0.8125 0.9375 2.09375 0.9375zm7.5836945 -9.171875q-0.375 0 -0.65625 -0.265625q-0.28125 -0.28125 -0.28125 -0.671875q0 -0.390625 0.28125 -0.671875q0.28125 -0.28125 0.65625 -0.28125q0.390625 0 0.671875 0.28125q0.28125 0.28125 0.28125 0.671875q0 0.390625 -0.28125 0.671875q-0.28125 0.265625 -0.671875 0.265625zm-0.6875 10.296875l0 -9.015625l1.390625 0l0 9.015625l-1.390625 0zm8.119537 0.21875q-1.953125 0 -3.203125 -1.328125q-1.25 -1.328125 -1.25 -3.40625q0 -2.09375 1.25 -3.40625q1.25 -1.3125 3.203125 -1.3125q1.96875 0 3.21875 1.3125q1.25 1.3125 1.25 3.40625q0 2.078125 -1.25 3.40625q-1.25 1.328125 -3.21875 1.328125zm0 -1.25q1.3125 0 2.15625 -0.96875q0.84375 -0.984375 0.84375 -2.515625q0 -1.515625 -0.84375 -2.484375q-0.84375 -0.984375 -2.15625 -0.984375q-1.296875 0 -2.15625 0.96875q-0.84375 0.96875 -0.84375 2.5q0 1.546875 0.84375 2.515625q0.84375 0.96875 2.15625 0.96875zm12.827621 1.03125l0 -5.890625q0 -1.203125 -0.5625 -1.640625q-0.546875 -0.453125 -1.453125 -0.453125q-0.78125 0 -1.546875 0.421875q-0.75 0.421875 -1.125 0.984375l0 6.578125l-1.390625 0l0 -9.015625l1.390625 0l0 1.3125q0.578125 -0.671875 1.421875 -1.09375q0.859375 -0.4375 1.78125 -0.4375q2.875 0 2.875 2.90625l0 6.328125l-1.390625 0zm9.826477 0l0 -1.03125q-1.140625 1.25 -2.984375 1.25q-1.359375 0 -2.265625 -0.859375q-0.890625 -0.859375 -0.890625 -2.125q0 -1.296875 0.890625 -2.125q0.890625 -0.84375 2.265625 -0.84375q1.9375 0 2.984375 1.234375l0 -1.625q0 -0.90625 -0.640625 -1.390625q-0.640625 -0.5 -1.640625 -0.5q-1.578125 0 -2.75 1.25l-0.65625 -0.984375q1.4375 -1.484375 3.59375 -1.484375q1.671875 0 2.578125 0.8125q0.921875 0.796875 0.921875 2.234375l0 6.1875l-1.40625 0zm-2.484375 -0.78125q1.671875 0 2.484375 -1.125l0 -1.6875q-0.8125 -1.125 -2.484375 -1.125q-0.984375 0 -1.609375 0.546875q-0.609375 0.546875 -0.609375 1.421875q0 0.859375 0.609375 1.421875q0.625 0.546875 1.609375 0.546875zm6.691223 0.78125l0 -12.4375l1.390625 0l0 12.4375l-1.390625 0zm16.573479 0l-4.71875 -5.59375l-1.25 1.421875l0 4.171875l-1.546875 0l0 -12.4375l1.546875 0l0 6.4375l5.5 -6.4375l1.953125 0l-5.1875 5.90625l5.625 6.53125l-1.921875 0zm9.274902 0l0 -1.03125q-1.140625 1.25 -2.984375 1.25q-1.359375 0 -2.265625 -0.859375q-0.890625 -0.859375 -0.890625 -2.125q0 -1.296875 0.890625 -2.125q0.890625 -0.84375 2.265625 -0.84375q1.9375 0 2.984375 1.234375l0 -1.625q0 -0.90625 -0.640625 -1.390625q-0.640625 -0.5 -1.640625 -0.5q-1.578125 0 -2.75 1.25l-0.65625 -0.984375q1.4375 -1.484375 3.59375 -1.484375q1.671875 0 2.578125 0.8125q0.921875 0.796875 0.921875 2.234375l0 6.1875l-1.40625 0zm-2.484375 -0.78125q1.671875 0 2.484375 -1.125l0 -1.6875q-0.8125 -1.125 -2.484375 -1.125q-0.984375 0 -1.609375 0.546875q-0.609375 0.546875 -0.609375 1.421875q0 0.859375 0.609375 1.421875q0.625 0.546875 1.609375 0.546875zm7.081848 0.78125l0 -7.78125l-1.5 0l0 -1.234375l1.5 0l0 -0.6875q0 -1.390625 0.68748474 -2.15625q0.703125 -0.765625 1.921875 -0.765625q1.140625 0 1.90625 0.6875l-0.578125 0.90625q-0.484375 -0.4375 -1.125 -0.4375q-1.421875 0 -1.421875 1.765625l0 0.6875l1.828125 0l0 1.234375l-1.828125 0l0 7.78125l-1.3906097 0zm11.014084 0l-3.234375 -4.046875l-1.5 1.46875l0 2.578125l-1.390625 0l0 -12.4375l1.390625 0l0 8.21875l4.734375 -4.796875l1.78125 0l-4.0 4.09375l4.015625 4.921875l-1.796875 0zm9.089325 0l0 -1.03125q-1.140625 1.25 -2.984375 1.25q-1.359375 0 -2.265625 -0.859375q-0.890625 -0.859375 -0.890625 -2.125q0 -1.296875 0.890625 -2.125q0.890625 -0.84375 2.265625 -0.84375q1.9375 0 2.984375 1.234375l0 -1.625q0 -0.90625 -0.640625 -1.390625q-0.640625 -0.5 -1.640625 -0.5q-1.578125 0 -2.75 1.25l-0.65625 -0.984375q1.4375 -1.484375 3.59375 -1.484375q1.671875 0 2.578125 0.8125q0.921875 0.796875 0.921875 2.234375l0 6.1875l-1.40625 0zm-2.484375 -0.78125q1.671875 0 2.484375 -1.125l0 -1.6875q-0.8125 -1.125 -2.484375 -1.125q-0.984375 0 -1.609375 0.546875q-0.609375 0.546875 -0.609375 1.421875q0 0.859375 0.609375 1.421875q0.625 0.546875 1.609375 0.546875z" fill-rule="nonzero"/><path fill="#000000" d="m83.25523 200.49118l0 -12.4375l5.546875 0q1.578125 0 2.53125 0.875q0.953125 0.859375 0.953125 2.296875q0 1.09375 -0.609375 1.859375q-0.609375 0.765625 -1.578125 0.984375q1.0 0.15625 1.71875 1.046875q0.71875 0.890625 0.71875 2.015625q0 1.53125 -0.96875 2.453125q-0.953125 0.90625 -2.640625 0.90625l-5.671875 0zm5.28125 -7.046875q1.0625 0 1.59375 -0.5625q0.546875 -0.578125 0.546875 -1.4375q0 -0.84375 -0.546875 -1.421875q-0.53125 -0.59375 -1.59375 -0.59375l-3.734375 0l0 4.015625l3.734375 0zm0.078125 5.671875q1.09375 0 1.703125 -0.5625q0.609375 -0.578125 0.609375 -1.59375q0 -0.953125 -0.640625 -1.546875q-0.625 -0.59375 -1.671875 -0.59375l-3.8125 0l0 4.296875l3.8125 0zm6.328537 1.375l0 -9.015625l1.390625 0l0 1.453125q1.25 -1.640625 3.0 -1.640625l0 1.4375l-0.546875 -0.046875q-0.640625 0 -1.40625 0.453125q-0.765625 0.453125 -1.046875 0.984375l0 6.375l-1.390625 0zm10.078445 0.21875q-1.953125 0 -3.203125 -1.328125q-1.25 -1.328125 -1.25 -3.40625q0 -2.09375 1.25 -3.40625q1.25 -1.3125 3.203125 -1.3125q1.96875 0 3.21875 1.3125q1.25 1.3125 1.25 3.40625q0 2.078125 -1.25 3.40625q-1.25 1.328125 -3.21875 1.328125zm0 -1.25q1.3125 0 2.15625 -0.96875q0.84375 -0.984375 0.84375 -2.515625q0 -1.515625 -0.84375 -2.484375q-0.84375 -0.984375 -2.15625 -0.984375q-1.296875 0 -2.15625 0.96875q-0.84375 0.96875 -0.84375 2.5q0 1.546875 0.84375 2.515625q0.84375 0.96875 2.15625 0.96875zm12.874496 1.03125l-3.234375 -4.046875l-1.5 1.46875l0 2.578125l-1.390625 0l0 -12.4375l1.390625 0l0 8.21875l4.734375 -4.796875l1.78125 0l-4.0 4.09375l4.015625 4.921875l-1.796875 0zm7.5268097 0.21875q-2.03125 0 -3.3125 -1.3125q-1.28125 -1.328125 -1.28125 -3.421875q0 -2.0 1.265625 -3.359375q1.28125 -1.359375 3.171875 -1.359375q1.9375 0 3.125 1.34375q1.203125 1.34375 1.203125 3.484375l0 0.359375l-7.296875 0q0.078125 1.375 1.0 2.25q0.921875 0.859375 2.25 0.859375q1.640625 0 2.78125 -1.140625l0.671875 0.921875q-1.375 1.375 -3.578125 1.375zm2.796875 -5.296875q0 -1.25 -0.828125 -2.125q-0.8125 -0.875 -2.140625 -0.875q-1.25 0 -2.078125 0.875q-0.828125 0.875 -0.875 2.125l5.921875 0zm3.6440887 5.078125l0 -9.015625l1.390625 0l0 1.453125q1.25 -1.640625 3.0 -1.640625l0 1.4375l-0.546875 -0.046875q-0.640625 0 -1.40625 0.453125q-0.765625 0.453125 -1.046875 0.984375l0 6.375l-1.390625 0zm9.00032 0.21875q-2.296875 0 -3.640625 -1.40625l0.734375 -1.015625q0.453125 0.53125 1.234375 0.90625q0.796875 0.375 1.734375 0.375q1.046875 0 1.578125 -0.4375q0.546875 -0.4375 0.546875 -1.109375q0 -0.59375 -0.59375 -0.9375q-0.578125 -0.34375 -2.1875 -0.71875q-1.359375 -0.28125 -2.078125 -0.875q-0.71875 -0.609375 -0.71875 -1.640625q0 -1.140625 0.90625 -1.859375q0.921875 -0.734375 2.453125 -0.734375q2.03125 0 3.34375 1.3125l-0.65625 0.96875q-0.40625 -0.484375 -1.109375 -0.8125q-0.703125 -0.328125 -1.578125 -0.328125q-0.9375 0 -1.46875 0.40625q-0.53125 0.40625 -0.53125 1.015625q0 0.53125 0.59375 0.859375q0.609375 0.3125 2.203125 0.640625q1.359375 0.328125 2.0625 0.96875q0.71875 0.640625 0.71875 1.703125q0 1.25 -0.96875 1.984375q-0.96875 0.734375 -2.578125 0.734375z" fill-rule="nonzero"/><path fill="#000000" fill-opacity="0.0" d="m250.4029 222.79953l125.38583 49.039368" fill-rule="evenodd"/><path stroke="#000000" stroke-width="1.0" stroke-linejoin="round" stroke-linecap="butt" stroke-dasharray="4.0,3.0" d="m250.4029 222.79951l119.79797 46.853928" fill-rule="evenodd"/><path fill="#000000" stroke="#000000" stroke-width="1.0" stroke-linecap="butt" d="m369.59924 271.1917l4.828003 0.11468506l-3.6247253 -3.1912231z" fill-rule="evenodd"/><path fill="#000000" fill-opacity="0.0" d="m351.71127 222.79953l24.063019 49.039368" fill-rule="evenodd"/><path stroke="#000000" stroke-width="1.0" stroke-linejoin="round" stroke-linecap="butt" stroke-dasharray="4.0,3.0" d="m351.71127 222.79951l21.419922 43.652878" fill-rule="evenodd"/><path fill="#000000" stroke="#000000" stroke-width="1.0" stroke-linecap="butt" d="m371.64838 267.18002l3.481903 3.3464355l-0.51623535 -4.8016663z" fill-rule="evenodd"/><path fill="#000000" fill-opacity="0.0" d="m453.01968 222.79953l-77.22833 49.039368" fill-rule="evenodd"/><path stroke="#000000" stroke-width="1.0" stroke-linejoin="round" stroke-linecap="butt" stroke-dasharray="4.0,3.0" d="m453.01968 222.79951l-72.16321 45.823074" fill-rule="evenodd"/><path fill="#000000" stroke="#000000" stroke-width="1.0" stroke-linecap="butt" d="m379.97104 267.2282l-2.9455872 3.8270264l4.7164 -1.038269z" fill-rule="evenodd"/><path fill="#fff2cc" d="m24.391077 15.327089l211.81102 0l0 74.86614l-211.81102 0z" fill-rule="evenodd"/><path stroke="#000000" stroke-width="1.0" stroke-linejoin="round" stroke-linecap="butt" d="m24.391077 15.327089l211.81102 0l0 74.86614l-211.81102 0z" fill-rule="evenodd"/><path fill="#000000" d="m71.906456 58.62016l0 -10.671875l1.328125 0l0 9.484375l4.953125 0l0 1.1875l-6.28125 0zm11.488144 0.1875q-1.6875 0 -2.765625 -1.140625q-1.0625 -1.140625 -1.0625 -2.921875q0 -1.78125 1.0625 -2.90625q1.078125 -1.140625 2.765625 -1.140625q1.671875 0 2.75 1.140625q1.078125 1.125 1.078125 2.90625q0 1.78125 -1.078125 2.921875q-1.078125 1.140625 -2.75 1.140625zm0 -1.0625q1.125 0 1.84375 -0.84375q0.71875 -0.84375 0.71875 -2.15625q0 -1.296875 -0.71875 -2.125q-0.71875 -0.84375 -1.84375 -0.84375q-1.125 0 -1.859375 0.828125q-0.71875 0.828125 -0.71875 2.140625q0 1.328125 0.71875 2.171875q0.71875 0.828125 1.859375 0.828125zm8.870773 4.015625q-0.984375 0 -1.703125 -0.25q-0.71875 -0.234375 -1.40625 -0.90625l0.609375 -0.890625q0.46875 0.5625 1.0625 0.796875q0.609375 0.25 1.4375 0.25q1.1875 0 1.828125 -0.625q0.65625 -0.609375 0.65625 -1.6875l0 -1.109375q-0.40625 0.59375 -1.09375 0.984375q-0.671875 0.390625 -1.5 0.390625q-1.5625 0 -2.5 -1.09375q-0.9375 -1.109375 -0.9375 -2.90625q0 -1.859375 0.953125 -2.9375q0.953125 -1.078125 2.484375 -1.078125q1.609375 0 2.59375 1.359375l0 -1.171875l1.203125 0l0 7.515625q0 1.625 -0.96875 2.484375q-0.953125 0.875 -2.71875 0.875zm0.1875 -4.09375q0.65625 0 1.296875 -0.34375q0.65625 -0.359375 1.0 -0.921875l0 -3.375q-0.34375 -0.5625 -1.0 -0.90625q-0.65625 -0.34375 -1.296875 -0.34375q-1.140625 0 -1.8125 0.8125q-0.671875 0.8125 -0.671875 2.125q0 1.328125 0.6875 2.140625q0.6875 0.8125 1.796875 0.8125zm8.996521 4.09375q-0.984375 0 -1.703125 -0.25q-0.71875 -0.234375 -1.40625 -0.90625l0.609375 -0.890625q0.46875 0.5625 1.0625 0.796875q0.609375 0.25 1.4375 0.25q1.1875 0 1.828125 -0.625q0.65625 -0.609375 0.65625 -1.6875l0 -1.109375q-0.40625 0.59375 -1.09375 0.984375q-0.671875 0.390625 -1.5 0.390625q-1.5625 0 -2.5 -1.09375q-0.9375 -1.109375 -0.9375 -2.90625q0 -1.859375 0.953125 -2.9375q0.953125 -1.078125 2.484375 -1.078125q1.609375 0 2.59375 1.359375l0 -1.171875l1.203125 0l0 7.515625q0 1.625 -0.96875 2.484375q-0.953125 0.875 -2.71875 0.875zm0.1875 -4.09375q0.65625 0 1.296875 -0.34375q0.65625 -0.359375 1.0 -0.921875l0 -3.375q-0.34375 -0.5625 -1.0 -0.90625q-0.65625 -0.34375 -1.296875 -0.34375q-1.140625 0 -1.8125 0.8125q-0.671875 0.8125 -0.671875 2.125q0 1.328125 0.6875 2.140625q0.6875 0.8125 1.796875 0.8125zm6.496521 -7.875q-0.328125 0 -0.578125 -0.234375q-0.234375 -0.234375 -0.234375 -0.5625q0 -0.34375 0.234375 -0.578125q0.25 -0.25 0.578125 -0.25q0.328125 0 0.5625 0.25q0.25 0.234375 0.25 0.578125q0 0.328125 -0.25 0.5625q-0.234375 0.234375 -0.5625 0.234375zm-0.59375 8.828125l0 -7.734375l1.203125 0l0 7.734375l-1.203125 0zm8.818756 0l0 -5.0625q0 -1.015625 -0.484375 -1.390625q-0.46875 -0.390625 -1.25 -0.390625q-0.671875 0 -1.328125 0.359375q-0.640625 0.359375 -0.953125 0.84375l0 5.640625l-1.203125 0l0 -7.734375l1.203125 0l0 1.125q0.484375 -0.578125 1.21875 -0.9375q0.734375 -0.375 1.53125 -0.375q2.453125 0 2.453125 2.5l0 5.421875l-1.1875 0zm6.691025 3.140625q-0.984375 0 -1.703125 -0.25q-0.71875 -0.234375 -1.40625 -0.90625l0.609375 -0.890625q0.46875 0.5625 1.0625 0.796875q0.609375 0.25 1.4375 0.25q1.1875 0 1.828125 -0.625q0.65625 -0.609375 0.65625 -1.6875l0 -1.109375q-0.40625 0.59375 -1.09375 0.984375q-0.671875 0.390625 -1.5 0.390625q-1.5625 0 -2.5 -1.09375q-0.9375 -1.109375 -0.9375 -2.90625q0 -1.859375 0.953125 -2.9375q0.953125 -1.078125 2.484375 -1.078125q1.609375 0 2.59375 1.359375l0 -1.171875l1.203125 0l0 7.515625q0 1.625 -0.96875 2.484375q-0.953125 0.875 -2.71875 0.875zm0.1875 -4.09375q0.65625 0 1.296875 -0.34375q0.65625 -0.359375 1.0 -0.921875l0 -3.375q-0.34375 -0.5625 -1.0 -0.90625q-0.65625 -0.34375 -1.296875 -0.34375q-1.140625 0 -1.8125 0.8125q-0.671875 0.8125 -0.671875 2.125q0 1.328125 0.6875 2.140625q0.6875 0.8125 1.796875 0.8125zm11.780785 4.140625q-1.078125 -1.484375 -1.671875 -3.3125q-0.578125 -1.828125 -0.578125 -3.765625q0 -1.9375 0.578125 -3.75q0.59375 -1.8125 1.671875 -3.3125l0.734375 0.53125q-0.96875 1.921875 -1.328125 3.359375q-0.34375 1.4375 -0.34375 3.171875q0 1.734375 0.359375 3.1875q0.359375 1.453125 1.3125 3.328125l-0.734375 0.5625zm2.2180023 -3.1875l0 -7.734375l1.203125 0l0 1.25q1.0625 -1.40625 2.5625 -1.40625l0 1.234375l-0.46875 -0.046875q-0.546875 0 -1.203125 0.390625q-0.65625 0.390625 -0.890625 0.84375l0 5.46875l-1.203125 0zm7.717514 0.1875q-1.953125 0 -3.109375 -1.21875l0.625 -0.859375q0.375 0.453125 1.046875 0.78125q0.6875 0.328125 1.5 0.328125q0.890625 0 1.34375 -0.375q0.46875 -0.375 0.46875 -0.953125q0 -0.515625 -0.5 -0.8125q-0.5 -0.296875 -1.875 -0.609375q-1.171875 -0.25 -1.796875 -0.765625q-0.609375 -0.515625 -0.609375 -1.40625q0 -0.96875 0.78125 -1.59375q0.78125 -0.625 2.09375 -0.625q1.75 0 2.875 1.125l-0.5625 0.828125q-0.359375 -0.421875 -0.953125 -0.6875q-0.59375 -0.28125 -1.359375 -0.28125q-0.796875 0 -1.25 0.359375q-0.453125 0.34375 -0.453125 0.84375q0 0.46875 0.5 0.75q0.515625 0.265625 1.890625 0.546875q1.171875 0.28125 1.78125 0.828125q0.609375 0.546875 0.609375 1.46875q0 1.0625 -0.828125 1.703125q-0.828125 0.625 -2.21875 0.625zm4.7525177 1.75q0.265625 0.125 0.65625 0.125q0.40625 0 0.671875 -0.171875q0.28125 -0.15625 0.484375 -0.640625l0.515625 -1.171875l-3.234375 -7.8125l1.296875 0l2.578125 6.34375l2.5625 -6.34375l1.3125 0l-3.875 9.296875q-0.640625 1.546875 -2.28125 1.578125q-0.453125 0 -0.875 -0.109375l0.1875 -1.09375zm10.527512 -1.75q-1.953125 0 -3.109375 -1.21875l0.625 -0.859375q0.375 0.453125 1.046875 0.78125q0.6875 0.328125 1.5 0.328125q0.890625 0 1.34375 -0.375q0.46875 -0.375 0.46875 -0.953125q0 -0.515625 -0.5 -0.8125q-0.5 -0.296875 -1.875 -0.609375q-1.171875 -0.25 -1.796875 -0.765625q-0.609375 -0.515625 -0.609375 -1.40625q0 -0.96875 0.78125 -1.59375q0.78125 -0.625 2.09375 -0.625q1.75 0 2.875 1.125l-0.5625 0.828125q-0.359375 -0.421875 -0.953125 -0.6875q-0.59375 -0.28125 -1.359375 -0.28125q-0.796875 0 -1.25 0.359375q-0.453125 0.34375 -0.453125 0.84375q0 0.46875 0.5 0.75q0.515625 0.265625 1.890625 0.546875q1.171875 0.28125 1.78125 0.828125q0.609375 0.546875 0.609375 1.46875q0 1.0625 -0.828125 1.703125q-0.828125 0.625 -2.21875 0.625zm5.0025177 -0.1875l0 -10.671875l1.203125 0l0 10.671875l-1.203125 0zm6.975006 0.1875q-1.6875 0 -2.765625 -1.140625q-1.0625 -1.140625 -1.0625 -2.921875q0 -1.78125 1.0625 -2.90625q1.078125 -1.140625 2.765625 -1.140625q1.671875 0 2.75 1.140625q1.078125 1.125 1.078125 2.90625q0 1.78125 -1.078125 2.921875q-1.078125 1.140625 -2.75 1.140625zm0 -1.0625q1.125 0 1.84375 -0.84375q0.71875 -0.84375 0.71875 -2.15625q0 -1.296875 -0.71875 -2.125q-0.71875 -0.84375 -1.84375 -0.84375q-1.125 0 -1.859375 0.828125q-0.71875 0.828125 -0.71875 2.140625q0 1.328125 0.71875 2.171875q0.71875 0.828125 1.859375 0.828125zm8.870773 4.015625q-0.984375 0 -1.703125 -0.25q-0.71875 -0.234375 -1.40625 -0.90625l0.609375 -0.890625q0.46875 0.5625 1.0625 0.796875q0.609375 0.25 1.4375 0.25q1.1875 0 1.828125 -0.625q0.65625 -0.609375 0.65625 -1.6875l0 -1.109375q-0.40625 0.59375 -1.09375 0.984375q-0.671875 0.390625 -1.5 0.390625q-1.5625 0 -2.5 -1.09375q-0.9375 -1.109375 -0.9375 -2.90625q0 -1.859375 0.953125 -2.9375q0.953125 -1.078125 2.484375 -1.078125q1.609375 0 2.59375 1.359375l0 -1.171875l1.203125 0l0 7.515625q0 1.625 -0.96875 2.484375q-0.953125 0.875 -2.71875 0.875zm0.1875 -4.09375q0.65625 0 1.296875 -0.34375q0.65625 -0.359375 1.0 -0.921875l0 -3.375q-0.34375 -0.5625 -1.0 -0.90625q-0.65625 -0.34375 -1.296875 -0.34375q-1.140625 0 -1.8125 0.8125q-0.671875 0.8125 -0.671875 2.125q0 1.328125 0.6875 2.140625q0.6875 0.8125 1.796875 0.8125zm4.965271 3.578125q0.953125 -1.859375 1.3125 -3.359375q0.375 -1.515625 0.375 -3.15625q0 -1.625 -0.359375 -3.109375q-0.359375 -1.484375 -1.328125 -3.421875l0.71875 -0.53125q1.109375 1.5 1.6875 3.3125q0.59375 1.8125 0.59375 3.75q0 1.9375 -0.59375 3.765625q-0.578125 1.828125 -1.6875 3.3125l-0.71875 -0.5625z" fill-rule="nonzero"/><path fill="#d0e0e3" d="m253.93701 15.327089l211.811 0l0 74.86614l-211.811 0z" fill-rule="evenodd"/><path stroke="#000000" stroke-width="1.0" stroke-linejoin="round" stroke-linecap="butt" d="m253.93701 15.327089l211.811 0l0 74.86614l-211.811 0z" fill-rule="evenodd"/><path fill="#000000" d="m275.48434 58.62016l0 -10.671875l4.28125 0q1.53125 0 2.4375 0.921875q0.90625 0.90625 0.90625 2.296875q0 1.40625 -0.921875 2.3125q-0.921875 0.90625 -2.421875 0.90625l-2.953125 0l0 4.234375l-1.328125 0zm4.125 -5.421875q0.96875 0 1.546875 -0.5625q0.578125 -0.5625 0.578125 -1.46875q0 -0.921875 -0.578125 -1.46875q-0.578125 -0.5625 -1.546875 -0.5625l-2.796875 0l0 4.0625l2.796875 0zm5.220154 5.421875l0 -7.734375l1.203125 0l0 1.25q1.0625 -1.40625 2.5625 -1.40625l0 1.234375l-0.46875 -0.046875q-0.546875 0 -1.203125 0.390625q-0.65625 0.390625 -0.890625 0.84375l0 5.46875l-1.203125 0zm8.654999 0.1875q-1.6875 0 -2.765625 -1.140625q-1.0625 -1.140625 -1.0625 -2.921875q0 -1.78125 1.0625 -2.90625q1.078125 -1.140625 2.765625 -1.140625q1.671875 0 2.75 1.140625q1.078125 1.125 1.078125 2.90625q0 1.78125 -1.078125 2.921875q-1.078125 1.140625 -2.75 1.140625zm0 -1.0625q1.125 0 1.84375 -0.84375q0.71875 -0.84375 0.71875 -2.15625q0 -1.296875 -0.71875 -2.125q-0.71875 -0.84375 -1.84375 -0.84375q-1.125 0 -1.859375 0.828125q-0.71875 0.828125 -0.71875 2.140625q0 1.328125 0.71875 2.171875q0.71875 0.828125 1.859375 0.828125zm11.370789 0.875l0 -1.15625q-0.421875 0.59375 -1.109375 0.96875q-0.671875 0.375 -1.5 0.375q-1.546875 0 -2.5 -1.09375q-0.9375 -1.109375 -0.9375 -2.953125q0 -1.859375 0.953125 -2.953125q0.953125 -1.109375 2.484375 -1.109375q0.78125 0 1.46875 0.359375q0.6875 0.359375 1.140625 1.0l0 -4.109375l1.203125 0l0 10.671875l-1.203125 0zm-2.3125 -0.875q0.71875 0 1.359375 -0.34375q0.640625 -0.359375 0.953125 -0.875l0 -3.5q-0.3125 -0.515625 -0.953125 -0.875q-0.640625 -0.375 -1.359375 -0.375q-1.125 0 -1.8125 0.8125q-0.671875 0.8125 -0.671875 2.171875q0 1.328125 0.671875 2.15625q0.671875 0.828125 1.8125 0.828125zm11.137512 0.875l0 -1.09375q-0.453125 0.515625 -1.171875 0.90625q-0.71875 0.375 -1.59375 0.375q-2.453125 0 -2.453125 -2.453125l0 -5.46875l1.203125 0l0 5.09375q0 0.90625 0.40625 1.34375q0.421875 0.421875 1.3125 0.421875q0.703125 0 1.328125 -0.34375q0.625 -0.359375 0.96875 -0.828125l0 -5.6875l1.1875 0l0 7.734375l-1.1875 0zm7.0035095 0.1875q-1.703125 0 -2.78125 -1.140625q-1.078125 -1.15625 -1.078125 -2.921875q0 -1.734375 1.078125 -2.890625q1.078125 -1.15625 2.78125 -1.15625q1.796875 0 2.828125 1.34375l-0.796875 0.734375q-0.734375 -1.0 -1.96875 -1.0q-1.1875 0 -1.9375 0.828125q-0.734375 0.8125 -0.734375 2.140625q0 1.34375 0.734375 2.171875q0.734375 0.828125 1.9375 0.828125q1.21875 0 1.96875 -1.015625l0.796875 0.734375q-1.03125 1.34375 -2.828125 1.34375zm6.4668884 0q-1.71875 0 -1.71875 -1.796875l0 -5.0625l-1.28125 0l0 -1.0625l1.28125 0l0 -2.109375l1.203125 0l0 2.109375l1.5625 0l0 1.0625l-1.5625 0l0 4.796875q0 0.4375 0.1875 0.71875q0.203125 0.28125 0.59375 0.28125q0.5 0 0.8125 -0.328125l0.359375 0.90625q-0.5 0.484375 -1.4375 0.484375zm6.9257812 -0.1875l0 -10.671875l1.328125 0l0 9.484375l4.953125 0l0 1.1875l-6.28125 0zm8.706879 -8.828125q-0.328125 0 -0.578125 -0.234375q-0.234375 -0.234375 -0.234375 -0.5625q0 -0.34375 0.234375 -0.578125q0.25 -0.25 0.578125 -0.25q0.328125 0 0.5625 0.25q0.25 0.234375 0.25 0.578125q0 0.328125 -0.25 0.5625q-0.234375 0.234375 -0.5625 0.234375zm-0.59375 8.828125l0 -7.734375l1.203125 0l0 7.734375l-1.203125 0zm3.928131 0l0 -6.671875l-1.28125 0l0 -1.0625l1.28125 0l0 -0.578125q0 -1.203125 0.59375 -1.859375q0.609375 -0.65625 1.65625 -0.65625q0.96875 0 1.625 0.59375l-0.5 0.78125q-0.40625 -0.390625 -0.953125 -0.390625q-1.21875 0 -1.21875 1.53125l0 0.578125l1.5625 0l0 1.0625l-1.5625 0l0 6.671875l-1.203125 0zm7.684265 0.1875q-1.75 0 -2.84375 -1.125q-1.09375 -1.140625 -1.09375 -2.9375q0 -1.703125 1.078125 -2.875q1.09375 -1.171875 2.734375 -1.171875q1.65625 0 2.671875 1.15625q1.03125 1.15625 1.03125 2.984375l0 0.3125l-6.25 0q0.0625 1.1875 0.84375 1.9375q0.796875 0.734375 1.9375 0.734375q1.40625 0 2.390625 -0.984375l0.578125 0.796875q-1.1875 1.171875 -3.078125 1.171875zm2.40625 -4.546875q0 -1.0625 -0.703125 -1.8125q-0.703125 -0.75 -1.84375 -0.75q-1.078125 0 -1.796875 0.75q-0.703125 0.75 -0.734375 1.8125l5.078125 0zm6.523651 4.546875q-1.703125 0 -2.78125 -1.140625q-1.078125 -1.15625 -1.078125 -2.921875q0 -1.734375 1.078125 -2.890625q1.078125 -1.15625 2.78125 -1.15625q1.796875 0 2.828125 1.34375l-0.796875 0.734375q-0.734375 -1.0 -1.96875 -1.0q-1.1875 0 -1.9375 0.828125q-0.734375 0.8125 -0.734375 2.140625q0 1.34375 0.734375 2.171875q0.734375 0.828125 1.9375 0.828125q1.21875 0 1.96875 -1.015625l0.796875 0.734375q-1.03125 1.34375 -2.828125 1.34375zm4.2637634 1.75q0.265625 0.125 0.65625 0.125q0.40625 0 0.671875 -0.171875q0.28125 -0.15625 0.484375 -0.640625l0.515625 -1.171875l-3.234375 -7.8125l1.296875 0l2.578125 6.34375l2.5625 -6.34375l1.3125 0l-3.875 9.296875q-0.640625 1.546875 -2.28125 1.578125q-0.453125 0 -0.875 -0.109375l0.1875 -1.09375zm11.496246 -1.75q-1.703125 0 -2.78125 -1.140625q-1.078125 -1.15625 -1.078125 -2.921875q0 -1.734375 1.078125 -2.890625q1.078125 -1.15625 2.78125 -1.15625q1.796875 0 2.828125 1.34375l-0.796875 0.734375q-0.734375 -1.0 -1.96875 -1.0q-1.1875 0 -1.9375 0.828125q-0.734375 0.8125 -0.734375 2.140625q0 1.34375 0.734375 2.171875q0.734375 0.828125 1.9375 0.828125q1.21875 0 1.96875 -1.015625l0.796875 0.734375q-1.03125 1.34375 -2.828125 1.34375zm4.5137634 -0.1875l0 -10.671875l1.203125 0l0 10.671875l-1.203125 0zm7.084381 0.1875q-1.75 0 -2.84375 -1.125q-1.09375 -1.140625 -1.09375 -2.9375q0 -1.703125 1.078125 -2.875q1.09375 -1.171875 2.734375 -1.171875q1.65625 0 2.671875 1.15625q1.03125 1.15625 1.03125 2.984375l0 0.3125l-6.25 0q0.0625 1.1875 0.84375 1.9375q0.796875 0.734375 1.9375 0.734375q1.40625 0 2.390625 -0.984375l0.578125 0.796875q-1.1875 1.171875 -3.078125 1.171875zm2.40625 -4.546875q0 -1.0625 -0.703125 -1.8125q-0.703125 -0.75 -1.84375 -0.75q-1.078125 0 -1.796875 0.75q-0.703125 0.75 -0.734375 1.8125l5.078125 0zm7.292267 4.359375l0 -10.671875l6.984375 0l0 1.1875l-5.65625 0l0 3.4375l5.546875 0l0 1.1875l-5.546875 0l0 3.671875l5.65625 0l0 1.1875l-6.984375 0zm11.119659 0l-3.21875 -7.734375l1.296875 0l2.578125 6.34375l2.5625 -6.34375l1.3125 0l-3.21875 7.734375l-1.3125 0zm9.261871 0.1875q-1.75 0 -2.84375 -1.125q-1.09375 -1.140625 -1.09375 -2.9375q0 -1.703125 1.078125 -2.875q1.09375 -1.171875 2.734375 -1.171875q1.65625 0 2.671875 1.15625q1.03125 1.15625 1.03125 2.984375l0 0.3125l-6.25 0q0.0625 1.1875 0.84375 1.9375q0.796875 0.734375 1.9375 0.734375q1.40625 0 2.390625 -0.984375l0.578125 0.796875q-1.1875 1.171875 -3.078125 1.171875zm2.40625 -4.546875q0 -1.0625 -0.703125 -1.8125q-0.703125 -0.75 -1.84375 -0.75q-1.078125 0 -1.796875 0.75q-0.703125 0.75 -0.734375 1.8125l5.078125 0zm8.336151 4.359375l0 -5.0625q0 -1.015625 -0.484375 -1.390625q-0.46875 -0.390625 -1.25 -0.390625q-0.671875 0 -1.328125 0.359375q-0.640625 0.359375 -0.953125 0.84375l0 5.640625l-1.203125 0l0 -7.734375l1.203125 0l0 1.125q0.484375 -0.578125 1.21875 -0.9375q0.734375 -0.375 1.53125 -0.375q2.453125 0 2.453125 2.5l0 5.421875l-1.1875 0zm5.5503845 0.1875q-1.71875 0 -1.71875 -1.796875l0 -5.0625l-1.28125 0l0 -1.0625l1.28125 0l0 -2.109375l1.203125 0l0 2.109375l1.5625 0l0 1.0625l-1.5625 0l0 4.796875q0 0.4375 0.1875 0.71875q0.203125 0.28125 0.59375 0.28125q0.5 0 0.8125 -0.328125l0.359375 0.90625q-0.5 0.484375 -1.4375 0.484375zm5.188385 0q-1.953125 0 -3.109375 -1.21875l0.625 -0.859375q0.375 0.453125 1.046875 0.78125q0.6875 0.328125 1.5 0.328125q0.890625 0 1.34375 -0.375q0.46875 -0.375 0.46875 -0.953125q0 -0.515625 -0.5 -0.8125q-0.5 -0.296875 -1.875 -0.609375q-1.171875 -0.25 -1.796875 -0.765625q-0.609375 -0.515625 -0.609375 -1.40625q0 -0.96875 0.78125 -1.59375q0.78125 -0.625 2.09375 -0.625q1.75 0 2.875 1.125l-0.5625 0.828125q-0.359375 -0.421875 -0.953125 -0.6875q-0.59375 -0.28125 -1.359375 -0.28125q-0.796875 0 -1.25 0.359375q-0.453125 0.34375 -0.453125 0.84375q0 0.46875 0.5 0.75q0.515625 0.265625 1.890625 0.546875q1.171875 0.28125 1.78125 0.828125q0.609375 0.546875 0.609375 1.46875q0 1.0625 -0.828125 1.703125q-0.828125 0.625 -2.21875 0.625z" fill-rule="nonzero"/><path fill="#000000" fill-opacity="0.0" d="m130.29659 90.19323l138.83464 57.732292" fill-rule="evenodd"/><path stroke="#000000" stroke-width="1.0" stroke-linejoin="round" stroke-linecap="butt" stroke-dasharray="1.0,3.0" d="m130.29659 90.19323l133.29457 55.42852" fill-rule="evenodd"/><path fill="#000000" stroke="#000000" stroke-width="1.0" stroke-linecap="butt" d="m262.95694 147.14688l4.8244324 0.21731567l-3.5560303 -3.2675781z" fill-rule="evenodd"/><path fill="#000000" fill-opacity="0.0" d="m130.29659 90.19323l240.12599 57.732292" fill-rule="evenodd"/><path stroke="#000000" stroke-width="1.0" stroke-linejoin="round" stroke-linecap="butt" stroke-dasharray="1.0,3.0" d="m130.29659 90.19323l234.29225 56.329704" fill-rule="evenodd"/><path fill="#000000" stroke="#000000" stroke-width="1.0" stroke-linecap="butt" d="m364.2027 148.1289l4.798462 -0.5451355l-4.026245 -2.666809z" fill-rule="evenodd"/><path fill="#000000" fill-opacity="0.0" d="m359.84253 90.19323l-90.70868 57.732292" fill-rule="evenodd"/><path stroke="#000000" stroke-width="1.0" stroke-linejoin="round" stroke-linecap="butt" stroke-dasharray="1.0,3.0" d="m359.84253 90.19323l-85.64691 54.51069" fill-rule="evenodd"/><path fill="#000000" stroke="#000000" stroke-width="1.0" stroke-linecap="butt" d="m273.30875 143.31047l-2.9415894 3.8301086l4.715332 -1.0432129z" fill-rule="evenodd"/><path fill="#000000" fill-opacity="0.0" d="m130.29659 90.19323l341.4488 57.732292" fill-rule="evenodd"/><path stroke="#000000" stroke-width="1.0" stroke-linejoin="round" stroke-linecap="butt" stroke-dasharray="1.0,3.0" d="m130.29659 90.19323l335.53278 56.732002" fill-rule="evenodd"/><path fill="#000000" stroke="#000000" stroke-width="1.0" stroke-linecap="butt" d="m465.55402 148.55385l4.749939 -0.87205505l-4.1992188 -2.3851776z" fill-rule="evenodd"/><path fill="#000000" fill-opacity="0.0" d="m359.84253 90.19323l10.582672 57.732292" fill-rule="evenodd"/><path stroke="#000000" stroke-width="1.0" stroke-linejoin="round" stroke-linecap="butt" stroke-dasharray="1.0,3.0" d="m359.84253 90.19323l9.5008545 51.83062" fill-rule="evenodd"/><path fill="#000000" stroke="#000000" stroke-width="1.0" stroke-linecap="butt" d="m367.71872 142.32166l2.4429016 4.165909l0.806427 -4.7615204z" fill-rule="evenodd"/><path fill="#000000" fill-opacity="0.0" d="m359.84253 90.19323l111.90549 57.732292" fill-rule="evenodd"/><path stroke="#000000" stroke-width="1.0" stroke-linejoin="round" stroke-linecap="butt" stroke-dasharray="1.0,3.0" d="m359.84253 90.19323l106.57327 54.981377" fill-rule="evenodd"/><path fill="#000000" stroke="#000000" stroke-width="1.0" stroke-linecap="butt" d="m465.6585 146.64252l4.7903137 0.61273193l-3.2757263 -3.5485382z" fill-rule="evenodd"/><path fill="#e6b8af" d="m485.937 15.327089l211.81104 0l0 74.86614l-211.81104 0z" fill-rule="evenodd"/><path stroke="#000000" stroke-width="1.0" stroke-linejoin="round" stroke-linecap="butt" d="m485.937 15.327089l211.81104 0l0 74.86614l-211.81104 0z" fill-rule="evenodd"/><path fill="#000000" d="m523.30035 58.62016l0 -10.671875l4.28125 0q1.53125 0 2.4375 0.921875q0.90625 0.90625 0.90625 2.296875q0 1.40625 -0.921875 2.3125q-0.921875 0.90625 -2.421875 0.90625l-2.953125 0l0 4.234375l-1.328125 0zm4.125 -5.421875q0.96875 0 1.546875 -0.5625q0.578125 -0.5625 0.578125 -1.46875q0 -0.921875 -0.578125 -1.46875q-0.578125 -0.5625 -1.546875 -0.5625l-2.796875 0l0 4.0625l2.796875 0zm5.220154 5.421875l0 -7.734375l1.203125 0l0 1.25q1.0625 -1.40625 2.5625 -1.40625l0 1.234375l-0.46875 -0.046875q-0.546875 0 -1.203125 0.390625q-0.65625 0.390625 -0.890625 0.84375l0 5.46875l-1.203125 0zm8.655029 0.1875q-1.6875 0 -2.765625 -1.140625q-1.0625 -1.140625 -1.0625 -2.921875q0 -1.78125 1.0625 -2.90625q1.078125 -1.140625 2.765625 -1.140625q1.671875 0 2.75 1.140625q1.078125 1.125 1.078125 2.90625q0 1.78125 -1.078125 2.921875q-1.078125 1.140625 -2.75 1.140625zm0 -1.0625q1.125 0 1.84375 -0.84375q0.71875 -0.84375 0.71875 -2.15625q0 -1.296875 -0.71875 -2.125q-0.71875 -0.84375 -1.84375 -0.84375q-1.125 0 -1.859375 0.828125q-0.71875 0.828125 -0.71875 2.140625q0 1.328125 0.71875 2.171875q0.71875 0.828125 1.859375 0.828125zm15.105164 0.875l0 -5.25q0 -1.59375 -1.421875 -1.59375q-0.609375 0 -1.1875 0.359375q-0.5625 0.359375 -0.859375 0.828125l0 5.65625l-1.203125 0l0 -5.25q0 -1.59375 -1.421875 -1.59375q-0.59375 0 -1.15625 0.375q-0.5625 0.359375 -0.875 0.828125l0 5.640625l-1.203125 0l0 -7.734375l1.203125 0l0 1.125q0.265625 -0.46875 1.015625 -0.890625q0.75 -0.421875 1.46875 -0.421875q0.90625 0 1.40625 0.421875q0.5 0.40625 0.671875 1.015625q0.40625 -0.625 1.140625 -1.03125q0.734375 -0.40625 1.453125 -0.40625q2.171875 0 2.171875 2.34375l0 5.578125l-1.203125 0zm7.0842285 0.1875q-1.75 0 -2.84375 -1.125q-1.09375 -1.140625 -1.09375 -2.9375q0 -1.703125 1.078125 -2.875q1.09375 -1.171875 2.734375 -1.171875q1.65625 0 2.671875 1.15625q1.03125 1.15625 1.03125 2.984375l0 0.3125l-6.25 0q0.0625 1.1875 0.84375 1.9375q0.796875 0.734375 1.9375 0.734375q1.40625 0 2.390625 -0.984375l0.578125 0.796875q-1.1875 1.171875 -3.078125 1.171875zm2.40625 -4.546875q0 -1.0625 -0.703125 -1.8125q-0.703125 -0.75 -1.84375 -0.75q-1.078125 0 -1.796875 0.75q-0.703125 0.75 -0.734375 1.8125l5.078125 0zm5.0705566 4.546875q-1.71875 0 -1.71875 -1.796875l0 -5.0625l-1.28125 0l0 -1.0625l1.28125 0l0 -2.109375l1.203125 0l0 2.109375l1.5625 0l0 1.0625l-1.5625 0l0 4.796875q0 0.4375 0.1875 0.71875q0.203125 0.28125 0.59375 0.28125q0.5 0 0.8125 -0.328125l0.359375 0.90625q-0.5 0.484375 -1.4375 0.484375zm7.9852295 -0.1875l0 -5.09375q0 -0.859375 -0.421875 -1.296875q-0.40625 -0.453125 -1.328125 -0.453125q-0.65625 0 -1.28125 0.34375q-0.609375 0.328125 -1.0 0.859375l0 5.640625l-1.203125 0l0 -10.671875l1.203125 0l0 4.0625q0.5 -0.59375 1.234375 -0.953125q0.75 -0.359375 1.53125 -0.359375q2.453125 0 2.453125 2.46875l0 5.453125l-1.1875 0zm7.0820312 0.1875q-1.75 0 -2.84375 -1.125q-1.09375 -1.140625 -1.09375 -2.9375q0 -1.703125 1.078125 -2.875q1.09375 -1.171875 2.734375 -1.171875q1.65625 0 2.671875 1.15625q1.03125 1.15625 1.03125 2.984375l0 0.3125l-6.25 0q0.0625 1.1875 0.84375 1.9375q0.796875 0.734375 1.9375 0.734375q1.40625 0 2.390625 -0.984375l0.578125 0.796875q-1.1875 1.171875 -3.078125 1.171875zm2.40625 -4.546875q0 -1.0625 -0.703125 -1.8125q-0.703125 -0.75 -1.84375 -0.75q-1.078125 0 -1.796875 0.75q-0.703125 0.75 -0.734375 1.8125l5.078125 0zm8.336121 4.359375l0 -1.09375q-0.453125 0.515625 -1.171875 0.90625q-0.71875 0.375 -1.59375 0.375q-2.453125 0 -2.453125 -2.453125l0 -5.46875l1.203125 0l0 5.09375q0 0.90625 0.40625 1.34375q0.421875 0.421875 1.3125 0.421875q0.703125 0 1.328125 -0.34375q0.625 -0.359375 0.96875 -0.828125l0 -5.6875l1.1875 0l0 7.734375l-1.1875 0zm6.03479 0.1875q-1.953125 0 -3.109375 -1.21875l0.625 -0.859375q0.375 0.453125 1.046875 0.78125q0.6875 0.328125 1.5 0.328125q0.890625 0 1.34375 -0.375q0.46875 -0.375 0.46875 -0.953125q0 -0.515625 -0.5 -0.8125q-0.5 -0.296875 -1.875 -0.609375q-1.171875 -0.25 -1.796875 -0.765625q-0.609375 -0.515625 -0.609375 -1.40625q0 -0.96875 0.78125 -1.59375q0.78125 -0.625 2.09375 -0.625q1.75 0 2.875 1.125l-0.5625 0.828125q-0.359375 -0.421875 -0.953125 -0.6875q-0.59375 -0.28125 -1.359375 -0.28125q-0.796875 0 -1.25 0.359375q-0.453125 0.34375 -0.453125 0.84375q0 0.46875 0.5 0.75q0.515625 0.265625 1.890625 0.546875q1.171875 0.28125 1.78125 0.828125q0.609375 0.546875 0.609375 1.46875q0 1.0625 -0.828125 1.703125q-0.828125 0.625 -2.21875 0.625zm18.302368 -0.1875l0 -8.78125l-3.640625 8.78125l-0.546875 0l-3.609375 -8.78125l0 8.78125l-1.328125 0l0 -10.671875l1.90625 0l3.3125 8.03125l3.328125 -8.03125l1.90625 0l0 10.671875l-1.328125 0zm7.256531 0.1875q-1.75 0 -2.84375 -1.125q-1.09375 -1.140625 -1.09375 -2.9375q0 -1.703125 1.078125 -2.875q1.09375 -1.171875 2.734375 -1.171875q1.65625 0 2.671875 1.15625q1.03125 1.15625 1.03125 2.984375l0 0.3125l-6.25 0q0.0625 1.1875 0.84375 1.9375q0.796875 0.734375 1.9375 0.734375q1.40625 0 2.390625 -0.984375l0.578125 0.796875q-1.1875 1.171875 -3.078125 1.171875zm2.40625 -4.546875q0 -1.0625 -0.703125 -1.8125q-0.703125 -0.75 -1.84375 -0.75q-1.078125 0 -1.796875 0.75q-0.703125 0.75 -0.734375 1.8125l5.078125 0zm5.0705566 4.546875q-1.71875 0 -1.71875 -1.796875l0 -5.0625l-1.28125 0l0 -1.0625l1.28125 0l0 -2.109375l1.203125 0l0 2.109375l1.5625 0l0 1.0625l-1.5625 0l0 4.796875q0 0.4375 0.1875 0.71875q0.203125 0.28125 0.59375 0.28125q0.5 0 0.8125 -0.328125l0.359375 0.90625q-0.5 0.484375 -1.4375 0.484375zm2.7508545 -0.1875l0 -7.734375l1.203125 0l0 1.25q1.0625 -1.40625 2.5625 -1.40625l0 1.234375l-0.46875 -0.046875q-0.546875 0 -1.203125 0.390625q-0.65625 0.390625 -0.890625 0.84375l0 5.46875l-1.203125 0zm5.8737793 -8.828125q-0.328125 0 -0.578125 -0.234375q-0.234375 -0.234375 -0.234375 -0.5625q0 -0.34375 0.234375 -0.578125q0.25 -0.25 0.578125 -0.25q0.328125 0 0.5625 0.25q0.25 0.234375 0.25 0.578125q0 0.328125 -0.25 0.5625q-0.234375 0.234375 -0.5625 0.234375zm-0.59375 8.828125l0 -7.734375l1.203125 0l0 7.734375l-1.203125 0zm7.0062256 0.1875q-1.703125 0 -2.78125 -1.140625q-1.078125 -1.15625 -1.078125 -2.921875q0 -1.734375 1.078125 -2.890625q1.078125 -1.15625 2.78125 -1.15625q1.796875 0 2.828125 1.34375l-0.796875 0.734375q-0.734375 -1.0 -1.96875 -1.0q-1.1875 0 -1.9375 0.828125q-0.734375 0.8125 -0.734375 2.140625q0 1.34375 0.734375 2.171875q0.734375 0.828125 1.9375 0.828125q1.21875 0 1.96875 -1.015625l0.796875 0.734375q-1.03125 1.34375 -2.828125 1.34375zm6.951294 0q-1.953125 0 -3.109375 -1.21875l0.625 -0.859375q0.375 0.453125 1.046875 0.78125q0.6875 0.328125 1.5 0.328125q0.890625 0 1.34375 -0.375q0.46875 -0.375 0.46875 -0.953125q0 -0.515625 -0.5 -0.8125q-0.5 -0.296875 -1.875 -0.609375q-1.171875 -0.25 -1.796875 -0.765625q-0.609375 -0.515625 -0.609375 -1.40625q0 -0.96875 0.78125 -1.59375q0.78125 -0.625 2.09375 -0.625q1.75 0 2.875 1.125l-0.5625 0.828125q-0.359375 -0.421875 -0.953125 -0.6875q-0.59375 -0.28125 -1.359375 -0.28125q-0.796875 0 -1.25 0.359375q-0.453125 0.34375 -0.453125 0.84375q0 0.46875 0.5 0.75q0.515625 0.265625 1.890625 0.546875q1.171875 0.28125 1.78125 0.828125q0.609375 0.546875 0.609375 1.46875q0 1.0625 -0.828125 1.703125q-0.828125 0.625 -2.21875 0.625z" fill-rule="nonzero"/><path fill="#000000" fill-opacity="0.0" d="m591.8425 90.19323l-322.70868 57.732292" fill-rule="evenodd"/><path stroke="#000000" stroke-width="1.0" stroke-linejoin="round" stroke-linecap="butt" stroke-dasharray="1.0,3.0" d="m591.8425 90.19323l-316.80243 56.675667" fill-rule="evenodd"/><path fill="#000000" stroke="#000000" stroke-width="1.0" stroke-linecap="butt" d="m274.7492 145.24298l-4.1763 2.4250946l4.7580566 0.82673645z" fill-rule="evenodd"/><path fill="#000000" fill-opacity="0.0" d="m591.8425 90.19323l-221.41733 57.732292" fill-rule="evenodd"/><path stroke="#000000" stroke-width="1.0" stroke-linejoin="round" stroke-linecap="butt" stroke-dasharray="1.0,3.0" d="m591.8425 90.19323l-215.61145 56.218468" fill-rule="evenodd"/><path fill="#000000" stroke="#000000" stroke-width="1.0" stroke-linecap="butt" d="m375.81433 144.8134l-3.9745178 2.7432709l4.808014 0.4533081z" fill-rule="evenodd"/><path fill="#000000" fill-opacity="0.0" d="m591.8425 90.19323l-120.09451 57.732292" fill-rule="evenodd"/><path stroke="#000000" stroke-width="1.0" stroke-linejoin="round" stroke-linecap="butt" stroke-dasharray="1.0,3.0" d="m591.8425 90.19323l-114.68689 55.13273" fill-rule="evenodd"/><path fill="#000000" stroke="#000000" stroke-width="1.0" stroke-linecap="butt" d="m476.44 143.8373l-3.3743896 3.454834l4.805664 -0.4775238z" fill-rule="evenodd"/><path fill="#b6d7a8" d="m647.54333 296.84018l0 0c0 -7.7408447 6.2751465 -14.016022 14.015991 -14.016022l130.07819 0c3.7172852 0 7.2822876 1.4766846 9.910828 4.105194c2.62854 2.6285095 4.1052246 6.1935425 4.1052246 9.910828l0 56.06244c0 7.740814 -6.2752075 14.016022 -14.016052 14.016022l-130.07819 0c-7.7408447 0 -14.015991 -6.2752075 -14.015991 -14.016022z" fill-rule="evenodd"/><path stroke="#000000" stroke-width="1.0" stroke-linejoin="round" stroke-linecap="butt" d="m647.54333 296.84018l0 0c0 -7.7408447 6.2751465 -14.016022 14.015991 -14.016022l130.07819 0c3.7172852 0 7.2822876 1.4766846 9.910828 4.105194c2.62854 2.6285095 4.1052246 6.1935425 4.1052246 9.910828l0 56.06244c0 7.740814 -6.2752075 14.016022 -14.016052 14.016022l-130.07819 0c-7.7408447 0 -14.015991 -6.2752075 -14.015991 -14.016022z" fill-rule="evenodd"/><path fill="#000000" d="m669.7802 321.01013q-3.0 0 -4.78125 -1.96875l0.921875 -1.171875q0.765625 0.84375 1.78125 1.3125q1.03125 0.453125 2.140625 0.453125q1.34375 0 2.125 -0.59375q0.796875 -0.59375 0.796875 -1.546875q0 -1.484375 -2.3125 -2.109375q-2.734375 -0.734375 -3.5 -1.15625q-0.75 -0.4375 -1.15625 -1.078125q-0.40625 -0.640625 -0.40625 -1.53125q0 -1.5 1.203125 -2.46875q1.203125 -0.984375 3.078125 -0.984375q2.796875 0 4.421875 1.734375l-0.9375 1.140625q-1.34375 -1.5 -3.59375 -1.5q-1.125 0 -1.84375 0.546875q-0.71875 0.53125 -0.71875 1.4375q0 0.640625 0.59375 1.109375q0.609375 0.453125 1.734375 0.734375q2.65625 0.71875 3.421875 1.1875q0.78125 0.46875 1.203125 1.15625q0.421875 0.671875 0.421875 1.640625q0 1.71875 -1.25 2.6875q-1.25 0.96875 -3.34375 0.96875zm6.901367 -0.21875l0 -12.4375l1.546875 0l0 11.0625l5.78125 0l0 1.375l-7.328125 0zm20.155273 0l0 -10.25l-4.234375 10.25l-0.640625 0l-4.21875 -10.25l0 10.25l-1.546875 0l0 -12.4375l2.21875 0l3.859375 9.359375l3.890625 -9.359375l2.21875 0l0 12.4375l-1.546875 0zm15.15625 0.21875q-2.734375 0 -4.5625 -1.796875q-1.828125 -1.8125 -1.828125 -4.640625q0 -2.8125 1.828125 -4.625q1.828125 -1.8125 4.5625 -1.8125q2.96875 0 4.734375 2.46875l-1.3125 0.734375q-0.546875 -0.796875 -1.453125 -1.296875q-0.90625 -0.515625 -1.96875 -0.515625q-2.0625 0 -3.421875 1.4375q-1.359375 1.4375 -1.359375 3.609375q0 2.203125 1.34375 3.640625q1.359375 1.421875 3.4375 1.421875q1.0625 0 1.96875 -0.5q0.90625 -0.515625 1.453125 -1.3125l1.328125 0.734375q-1.8125 2.453125 -4.75 2.453125zm10.596008 0q-1.953125 0 -3.203125 -1.328125q-1.25 -1.328125 -1.25 -3.40625q0 -2.09375 1.25 -3.40625q1.25 -1.3125 3.203125 -1.3125q1.96875 0 3.21875 1.3125q1.25 1.3125 1.25 3.40625q0 2.078125 -1.25 3.40625q-1.25 1.328125 -3.21875 1.328125zm0 -1.25q1.3125 0 2.15625 -0.96875q0.84375 -0.984375 0.84375 -2.515625q0 -1.515625 -0.84375 -2.484375q-0.84375 -0.984375 -2.15625 -0.984375q-1.296875 0 -2.15625 0.96875q-0.84375 0.96875 -0.84375 2.5q0 1.546875 0.84375 2.515625q0.84375 0.96875 2.15625 0.96875zm12.827637 1.03125l0 -5.890625q0 -1.203125 -0.5625 -1.640625q-0.546875 -0.453125 -1.453125 -0.453125q-0.78125 0 -1.546875 0.421875q-0.75 0.421875 -1.125 0.984375l0 6.578125l-1.390625 0l0 -9.015625l1.390625 0l0 1.3125q0.578125 -0.671875 1.421875 -1.09375q0.859375 -0.4375 1.78125 -0.4375q2.875 0 2.875 2.90625l0 6.328125l-1.390625 0zm7.045227 0.21875q-2.296875 0 -3.640625 -1.40625l0.734375 -1.015625q0.453125 0.53125 1.234375 0.90625q0.796875 0.375 1.734375 0.375q1.046875 0 1.578125 -0.4375q0.546875 -0.4375 0.546875 -1.109375q0 -0.59375 -0.59375 -0.9375q-0.578125 -0.34375 -2.1875 -0.71875q-1.359375 -0.28125 -2.078125 -0.875q-0.71875 -0.609375 -0.71875 -1.640625q0 -1.140625 0.90625 -1.859375q0.921875 -0.734375 2.453125 -0.734375q2.03125 0 3.34375 1.3125l-0.65625 0.96875q-0.40625 -0.484375 -1.109375 -0.8125q-0.703125 -0.328125 -1.578125 -0.328125q-0.9375 0 -1.46875 0.40625q-0.53125 0.40625 -0.53125 1.015625q0 0.53125 0.59375 0.859375q0.609375 0.3125 2.203125 0.640625q1.359375 0.328125 2.0625 0.96875q0.71875 0.640625 0.71875 1.703125q0 1.25 -0.96875 1.984375q-0.96875 0.734375 -2.578125 0.734375zm11.909485 -0.21875l0 -1.265625q-0.53125 0.59375 -1.375 1.046875q-0.828125 0.4375 -1.84375 0.4375q-2.859375 0 -2.859375 -2.875l0 -6.359375l1.390625 0l0 5.9375q0 1.0625 0.484375 1.5625q0.484375 0.484375 1.53125 0.484375q0.828125 0 1.546875 -0.40625q0.734375 -0.40625 1.125 -0.953125l0 -6.625l1.390625 0l0 9.015625l-1.390625 0zm15.076477 0l0 -6.125q0 -1.859375 -1.671875 -1.859375q-0.703125 0 -1.375 0.421875q-0.65625 0.421875 -1.0 0.953125l0 6.609375l-1.40625 0l0 -6.125q0 -1.859375 -1.65625 -1.859375q-0.6875 0 -1.34375 0.4375q-0.65625 0.421875 -1.03125 0.96875l0 6.578125l-1.390625 0l0 -9.015625l1.390625 0l0 1.3125q0.3125 -0.546875 1.1875 -1.03125q0.890625 -0.5 1.71875 -0.5q1.046875 0 1.625 0.484375q0.59375 0.484375 0.8125 1.1875q0.453125 -0.71875 1.3125 -1.1875q0.859375 -0.484375 1.703125 -0.484375q2.515625 0 2.515625 2.71875l0 6.515625l-1.390625 0zm8.26178 0.21875q-2.03125 0 -3.3125 -1.3125q-1.28125 -1.328125 -1.28125 -3.421875q0 -2.0 1.265625 -3.359375q1.28125 -1.359375 3.171875 -1.359375q1.9375 0 3.125 1.34375q1.203125 1.34375 1.203125 3.484375l0 0.359375l-7.296875 0q0.078125 1.375 1.0 2.25q0.921875 0.859375 2.25 0.859375q1.640625 0 2.78125 -1.140625l0.671875 0.921875q-1.375 1.375 -3.578125 1.375zm2.796875 -5.296875q0 -1.25 -0.828125 -2.125q-0.8125 -0.875 -2.140625 -0.875q-1.25 0 -2.078125 0.875q-0.828125 0.875 -0.875 2.125l5.921875 0zm3.644104 5.078125l0 -9.015625l1.390625 0l0 1.453125q1.25 -1.640625 3.0 -1.640625l0 1.4375l-0.546875 -0.046875q-0.640625 0 -1.40625 0.453125q-0.765625 0.453125 -1.046875 0.984375l0 6.375l-1.390625 0z" fill-rule="nonzero"/><path fill="#000000" d="m701.834 346.51013q-1.265625 -1.734375 -1.953125 -3.859375q-0.671875 -2.140625 -0.671875 -4.390625q0 -2.265625 0.671875 -4.375q0.6875 -2.125 1.953125 -3.875l0.84375 0.640625q-1.125 2.234375 -1.546875 3.90625q-0.40625 1.671875 -0.40625 3.703125q0 2.015625 0.421875 3.71875q0.421875 1.6875 1.53125 3.875l-0.84375 0.65625zm6.657959 -3.5q-3.0 0 -4.78125 -1.96875l0.921875 -1.171875q0.765625 0.84375 1.78125 1.3125q1.03125 0.453125 2.140625 0.453125q1.34375 0 2.125 -0.59375q0.796875 -0.59375 0.796875 -1.546875q0 -1.484375 -2.3125 -2.109375q-2.734375 -0.734375 -3.5 -1.15625q-0.75 -0.4375 -1.15625 -1.078125q-0.40625 -0.640625 -0.40625 -1.53125q0 -1.5 1.203125 -2.46875q1.203125 -0.984375 3.078125 -0.984375q2.796875 0 4.421875 1.734375l-0.9375 1.140625q-1.34375 -1.5 -3.59375 -1.5q-1.125 0 -1.84375 0.546875q-0.71875 0.53125 -0.71875 1.4375q0 0.640625 0.59375 1.109375q0.609375 0.453125 1.734375 0.734375q2.65625 0.71875 3.421875 1.1875q0.78125 0.46875 1.203125 1.15625q0.421875 0.671875 0.421875 1.640625q0 1.71875 -1.25 2.6875q-1.25 0.96875 -3.34375 0.96875zm11.291992 0q-1.921875 0 -3.046875 -1.578125l0 4.796875l-1.390625 0l0 -12.453125l1.390625 0l0 1.34375q0.484375 -0.6875 1.28125 -1.125q0.8125 -0.4375 1.765625 -0.4375q1.8125 0 2.90625 1.265625q1.09375 1.265625 1.09375 3.453125q0 2.171875 -1.09375 3.453125q-1.078125 1.28125 -2.90625 1.28125zm-0.359375 -1.25q1.3125 0 2.09375 -0.9375q0.796875 -0.953125 0.796875 -2.546875q0 -1.546875 -0.78125 -2.5q-0.78125 -0.96875 -2.109375 -0.96875q-0.84375 0 -1.578125 0.421875q-0.734375 0.421875 -1.109375 1.015625l0 4.0625q0.375 0.59375 1.109375 1.03125q0.734375 0.421875 1.578125 0.421875zm12.218201 1.03125l0 -1.03125q-1.140625 1.25 -2.984375 1.25q-1.359375 0 -2.265625 -0.859375q-0.890625 -0.859375 -0.890625 -2.125q0 -1.296875 0.890625 -2.125q0.890625 -0.84375 2.265625 -0.84375q1.9375 0 2.984375 1.234375l0 -1.625q0 -0.90625 -0.640625 -1.390625q-0.640625 -0.5 -1.640625 -0.5q-1.578125 0 -2.75 1.25l-0.65625 -0.984375q1.4375 -1.484375 3.59375 -1.484375q1.671875 0 2.578125 0.8125q0.921875 0.796875 0.921875 2.234375l0 6.1875l-1.40625 0zm-2.484375 -0.78125q1.671875 0 2.484375 -1.125l0 -1.6875q-0.8125 -1.125 -2.484375 -1.125q-0.984375 0 -1.609375 0.546875q-0.609375 0.546875 -0.609375 1.421875q0 0.859375 0.609375 1.421875q0.625 0.546875 1.609375 0.546875zm6.691223 0.78125l0 -9.015625l1.390625 0l0 1.453125q1.25 -1.640625 3.0 -1.640625l0 1.4375l-0.546875 -0.046875q-0.640625 0 -1.40625 0.453125q-0.765625 0.453125 -1.046875 0.984375l0 6.375l-1.390625 0zm12.281616 0l-3.234375 -4.046875l-1.5 1.46875l0 2.578125l-1.390625 0l0 -12.4375l1.390625 0l0 8.21875l4.734375 -4.796875l1.78125 0l-4.0 4.09375l4.015625 4.921875l-1.796875 0zm2.3705444 3.0625q1.109375 -2.171875 1.53125 -3.921875q0.4375 -1.765625 0.4375 -3.671875q0 -1.90625 -0.421875 -3.625q-0.421875 -1.734375 -1.546875 -3.984375l0.84375 -0.640625q1.28125 1.75 1.96875 3.875q0.6875 2.109375 0.6875 4.375q0 2.25 -0.6875 4.390625q-0.6875 2.125 -1.96875 3.859375l-0.84375 -0.65625z" fill-rule="nonzero"/><path fill="#000000" fill-opacity="0.0" d="m361.06955 389.5712c0 12.499939 50.83313 27.646118 88.46469 24.999908c37.63156 -2.6461792 62.061554 -23.084747 88.46466 -44.846405c26.403137 -21.761658 54.77942 -44.846436 109.55884 -44.846436" fill-rule="evenodd"/><path stroke="#000000" stroke-width="1.0" stroke-linejoin="round" stroke-linecap="butt" d="m361.06955 389.5712c0 12.4999695 50.83313 27.646118 88.46469 24.999908c37.63156 -2.6462097 62.061554 -23.084747 88.46472 -44.846405c13.201538 -10.880829 26.896362 -22.092438 44.138245 -30.583832c8.620972 -4.2457275 18.128662 -7.8113403 28.904846 -10.315582c5.3881226 -1.2521362 11.093323 -2.2388916 17.16333 -2.9125977c3.0350342 -0.33685303 6.161255 -0.595459 9.384705 -0.76986694c0.80584717 -0.04360962 1.6177368 -0.08190918 2.435852 -0.1149292c0.40899658 -0.016479492 0.8196411 -0.03161621 1.2317505 -0.045410156l0.30078125 -0.009063721" fill-rule="evenodd"/><path fill="#000000" stroke="#000000" stroke-width="1.0" stroke-linecap="butt" d="m641.5847 326.62497l4.5112915 -1.7235107l-4.5637207 -1.5795593z" fill-rule="evenodd"/></g></svg>