<svg xmlns="http://www.w3.org/2000/svg" xmlns:xlink="http://www.w3.org/1999/xlink" xmlns:lucid="lucid" width="320.86" height="802.16"><g transform="translate(0 0)" lucid:page-tab-id="0_0"><path d="M162.9 93.92v98M162.9 263.92v98M162.9 433.92v98M162.9 603.92v98" stroke="#aaa" stroke-width="2" fill="none"/><path d="M22.92 26.92c0-2.2 1.8-4 4-4H298.9c2.2 0 4 1.8 4 4v62c0 2.2-1.8 4-4 4H26.92c-2.2 0-4-1.8-4-4z" stroke="#aaa" stroke-width="2" fill="#c1e4f7" fill-opacity=".6"/><use xlink:href="#a" transform="matrix(1,0,0,1,32.91879562043796,32.91879562043796) translate(0 14.4)"/><use xlink:href="#b" transform="matrix(1,0,0,1,32.91879562043796,32.91879562043796) translate(108.75000000000001 14.4)"/><path d="M22.92 196.92c0-2.2 1.8-4 4-4H298.9c2.2 0 4 1.8 4 4v62c0 2.2-1.8 4-4 4H26.92c-2.2 0-4-1.8-4-4z" stroke="#aaa" stroke-width="2" fill="#c1e4f7" fill-opacity=".6"/><use xlink:href="#c" transform="matrix(1,0,0,1,32.91879562043796,202.91879562043795) translate(0 14.4)"/><use xlink:href="#d" transform="matrix(1,0,0,1,32.91879562043796,202.91879562043795) translate(121.70000000000002 14.4)"/><path d="M22.92 366.92c0-2.2 1.8-4 4-4H298.9c2.2 0 4 1.8 4 4v62c0 2.2-1.8 4-4 4H26.92c-2.2 0-4-1.8-4-4z" stroke="#aaa" stroke-width="2" fill="#c1e4f7" fill-opacity=".6"/><use xlink:href="#e" transform="matrix(1,0,0,1,32.91879562043796,372.91879562043795) translate(0 14.4)"/><use xlink:href="#f" transform="matrix(1,0,0,1,32.91879562043796,372.91879562043795) translate(51.50000000000001 14.4)"/><use xlink:href="#g" transform="matrix(1,0,0,1,32.91879562043796,372.91879562043795) translate(69.45000000000002 14.4)"/><path d="M22.92 536.92c0-2.2 1.8-4 4-4H298.9c2.2 0 4 1.8 4 4v62c0 2.2-1.8 4-4 4H26.92c-2.2 0-4-1.8-4-4z" stroke="#aaa" stroke-width="2" fill="#c1e4f7" fill-opacity=".6"/><g><use xlink:href="#h" transform="matrix(1,0,0,1,32.91879562043796,542.918795620438) translate(0 14.4)"/></g><path d="M22.92 706.92c0-2.2 1.8-4 4-4H298.9c2.2 0 4 1.8 4 4v62c0 2.2-1.8 4-4 4H26.92c-2.2 0-4-1.8-4-4z" stroke="#aaa" stroke-width="2" fill="#0c7cba" fill-opacity=".6"/><g><use xlink:href="#i" transform="matrix(1,0,0,1,32.91879562043796,712.918795620438) translate(0 14.4)"/><use xlink:href="#j" transform="matrix(1,0,0,1,32.91879562043796,712.918795620438) translate(118.85000000000001 14.4)"/></g><defs><path d="M24 0v-248h195v40H76v63h132v40H76v65h150V0H24" id="k"/><path d="M135-194c87-1 58 113 63 194h-50c-7-57 23-157-34-157-59 0-34 97-39 157H25l-1-190h47c2 12-1 28 3 38 12-26 28-41 61-42" id="l"/><path d="M195-6C206 82 75 100 31 46c-4-6-6-13-8-21l49-6c3 16 16 24 34 25 40 0 42-37 40-79-11 22-30 35-61 35-53 0-70-43-70-97 0-56 18-96 73-97 30 0 46 14 59 34l2-30h47zm-90-29c32 0 41-27 41-63 0-35-9-62-40-62-32 0-39 29-40 63 0 36 9 62 39 62" id="m"/><path d="M25-224v-37h50v37H25zM25 0v-190h50V0H25" id="n"/><path d="M185-48c-13 30-37 53-82 52C43 2 14-33 14-96s30-98 90-98c62 0 83 45 84 108H66c0 31 8 55 39 56 18 0 30-7 34-22zm-45-69c5-46-57-63-70-21-2 6-4 13-4 21h74" id="o"/><path d="M135-150c-39-12-60 13-60 57V0H25l-1-190h47c2 13-1 29 3 40 6-28 27-53 61-41v41" id="p"/><g id="a"><use transform="matrix(0.05,0,0,0.05,0,0)" xlink:href="#k"/><use transform="matrix(0.05,0,0,0.05,12,0)" xlink:href="#l"/><use transform="matrix(0.05,0,0,0.05,22.950000000000003,0)" xlink:href="#m"/><use transform="matrix(0.05,0,0,0.05,33.900000000000006,0)" xlink:href="#n"/><use transform="matrix(0.05,0,0,0.05,38.900000000000006,0)" xlink:href="#l"/><use transform="matrix(0.05,0,0,0.05,49.85000000000001,0)" xlink:href="#o"/><use transform="matrix(0.05,0,0,0.05,59.85,0)" xlink:href="#o"/><use transform="matrix(0.05,0,0,0.05,69.85000000000001,0)" xlink:href="#p"/><use transform="matrix(0.05,0,0,0.05,76.85000000000001,0)" xlink:href="#n"/><use transform="matrix(0.05,0,0,0.05,81.85000000000001,0)" xlink:href="#l"/><use transform="matrix(0.05,0,0,0.05,92.80000000000001,0)" xlink:href="#m"/></g><path d="M192-256c86 0 138 45 138 129 0 61-26 109-84 114-27 2-36-18-34-42-11 22-31 42-62 42-41 0-58-28-58-68 0-58 29-104 88-107 26-1 39 14 48 30l7-26h27L235-53c-1 11 6 15 14 16 38-7 54-45 54-90 0-68-42-104-111-104-92 0-143 58-143 150C49-9 89 32 162 32c43 0 75-12 103-28l11 22c-32 17-67 31-116 31C71 57 21 7 21-81c0-109 65-175 171-175zM156-38c42-5 58-44 60-89 1-24-14-38-37-38-41 0-55 40-57 84-1 25 9 46 34 43" id="q"/><path d="M24-248c120-7 223 5 221 122C244-46 201 0 124 0H24v-248zM76-40c74 7 117-18 117-86 0-67-45-88-117-82v168" id="r"/><path d="M140-251c80 0 125 45 125 126S219 4 139 4C58 4 15-44 15-125s44-126 125-126zm-1 214c52 0 73-35 73-88 0-50-21-86-72-86-52 0-73 35-73 86s22 88 72 88" id="s"/><g id="b"><use transform="matrix(0.05,0,0,0.05,0,0)" xlink:href="#q"/><use transform="matrix(0.05,0,0,0.05,17.55,0)" xlink:href="#r"/><use transform="matrix(0.05,0,0,0.05,30.5,0)" xlink:href="#s"/></g><path d="M24 0v-248h52V0H24" id="t"/><path d="M121-226c-27-7-43 5-38 36h38v33H83V0H34v-157H6v-33h28c-9-59 32-81 87-68v32" id="u"/><path d="M133-34C117-15 103 5 69 4 32 3 11-16 11-54c-1-60 55-63 116-61 1-26-3-47-28-47-18 1-26 9-28 27l-52-2c7-38 36-58 82-57s74 22 75 68l1 82c-1 14 12 18 25 15v27c-30 8-71 5-69-32zm-48 3c29 0 43-24 42-57-32 0-66-3-65 30 0 17 8 27 23 27" id="v"/><path d="M137-138c1-29-70-34-71-4 15 46 118 7 119 86 1 83-164 76-172 9l43-7c4 19 20 25 44 25 33 8 57-30 24-41C81-84 22-81 20-136c-2-80 154-74 161-7" id="w"/><path d="M115-3C79 11 28 4 28-45v-112H4v-33h27l15-45h31v45h36v33H77v99c-1 23 16 31 38 25v30" id="x"/><path d="M85 4C-2 5 27-109 22-190h50c7 57-23 150 33 157 60-5 35-97 40-157h50l1 190h-47c-2-12 1-28-3-38-12 25-28 42-61 42" id="y"/><path d="M190-63c-7 42-38 67-86 67-59 0-84-38-90-98-12-110 154-137 174-36l-49 2c-2-19-15-32-35-32-30 0-35 28-38 64-6 74 65 87 74 30" id="z"/><g id="c"><use transform="matrix(0.05,0,0,0.05,0,0)" xlink:href="#t"/><use transform="matrix(0.05,0,0,0.05,5,0)" xlink:href="#l"/><use transform="matrix(0.05,0,0,0.05,15.950000000000001,0)" xlink:href="#u"/><use transform="matrix(0.05,0,0,0.05,21.900000000000002,0)" xlink:href="#p"/><use transform="matrix(0.05,0,0,0.05,28.900000000000002,0)" xlink:href="#v"/><use transform="matrix(0.05,0,0,0.05,38.900000000000006,0)" xlink:href="#w"/><use transform="matrix(0.05,0,0,0.05,48.900000000000006,0)" xlink:href="#x"/><use transform="matrix(0.05,0,0,0.05,54.85,0)" xlink:href="#p"/><use transform="matrix(0.05,0,0,0.05,61.85,0)" xlink:href="#y"/><use transform="matrix(0.05,0,0,0.05,72.80000000000001,0)" xlink:href="#z"/><use transform="matrix(0.05,0,0,0.05,82.80000000000001,0)" xlink:href="#x"/><use transform="matrix(0.05,0,0,0.05,88.75000000000001,0)" xlink:href="#y"/><use transform="matrix(0.05,0,0,0.05,99.70000000000002,0)" xlink:href="#p"/><use transform="matrix(0.05,0,0,0.05,106.7,0)" xlink:href="#o"/></g><g id="d"><use transform="matrix(0.05,0,0,0.05,0,0)" xlink:href="#k"/><use transform="matrix(0.05,0,0,0.05,12,0)" xlink:href="#l"/><use transform="matrix(0.05,0,0,0.05,22.950000000000003,0)" xlink:href="#m"/><use transform="matrix(0.05,0,0,0.05,33.900000000000006,0)" xlink:href="#n"/><use transform="matrix(0.05,0,0,0.05,38.900000000000006,0)" xlink:href="#l"/><use transform="matrix(0.05,0,0,0.05,49.85000000000001,0)" xlink:href="#o"/><use transform="matrix(0.05,0,0,0.05,59.85,0)" xlink:href="#o"/><use transform="matrix(0.05,0,0,0.05,69.85000000000001,0)" xlink:href="#p"/><use transform="matrix(0.05,0,0,0.05,76.85000000000001,0)" xlink:href="#n"/><use transform="matrix(0.05,0,0,0.05,81.85000000000001,0)" xlink:href="#l"/><use transform="matrix(0.05,0,0,0.05,92.80000000000001,0)" xlink:href="#m"/></g><path d="M136-208V0H84v-208H4v-40h212v40h-80" id="A"/><path d="M110-194c64 0 96 36 96 99 0 64-35 99-97 99-61 0-95-36-95-99 0-62 34-99 96-99zm-1 164c35 0 45-28 45-65 0-40-10-65-43-65-34 0-45 26-45 65 0 36 10 65 43 65" id="B"/><path d="M25 0v-261h50V0H25" id="C"/><g id="e"><use transform="matrix(0.05,0,0,0.05,0,0)" xlink:href="#A"/><use transform="matrix(0.05,0,0,0.05,9.600000000000001,0)" xlink:href="#B"/><use transform="matrix(0.05,0,0,0.05,20.550000000000004,0)" xlink:href="#B"/><use transform="matrix(0.05,0,0,0.05,31.500000000000007,0)" xlink:href="#C"/><use transform="matrix(0.05,0,0,0.05,36.50000000000001,0)" xlink:href="#w"/></g><path d="M168-19C124 19 11 11 16-68c3-43 29-60 59-75-25-44-12-111 53-106 37 3 64 15 64 52 0 43-40 52-69 68 12 22 27 41 43 59 14-19 21-38 28-64l37 13c-8 29-19 52-34 74 12 10 32 16 52 10v35c-28 11-65-2-81-17zm-58-139c19-9 43-14 43-39 0-14-10-22-25-22-34 0-33 41-18 61zM60-68c-3 40 55 47 79 25-18-20-34-42-48-67-18 8-30 20-31 42" id="D"/><use transform="matrix(0.05,0,0,0.05,0,0)" xlink:href="#D" id="f"/><path d="M24-248c93 1 206-16 204 79-1 75-69 88-152 82V0H24v-248zm52 121c47 0 100 7 100-41 0-47-54-39-100-39v80" id="E"/><path d="M220-157c-53 9-28 100-34 157h-49v-107c1-27-5-49-29-50C55-147 81-57 75 0H25l-1-190h47c2 12-1 28 3 38 10-53 101-56 108 0 13-22 24-43 59-42 82 1 51 116 57 194h-49v-107c-1-25-5-48-29-50" id="F"/><g id="g"><use transform="matrix(0.05,0,0,0.05,0,0)" xlink:href="#E"/><use transform="matrix(0.05,0,0,0.05,12,0)" xlink:href="#C"/><use transform="matrix(0.05,0,0,0.05,17,0)" xlink:href="#v"/><use transform="matrix(0.05,0,0,0.05,27,0)" xlink:href="#x"/><use transform="matrix(0.05,0,0,0.05,32.95,0)" xlink:href="#u"/><use transform="matrix(0.05,0,0,0.05,38.900000000000006,0)" xlink:href="#B"/><use transform="matrix(0.05,0,0,0.05,49.85000000000001,0)" xlink:href="#p"/><use transform="matrix(0.05,0,0,0.05,56.85,0)" xlink:href="#F"/><use transform="matrix(0.05,0,0,0.05,72.85000000000001,0)" xlink:href="#w"/></g><path d="M135-194c52 0 70 43 70 98 0 56-19 99-73 100-30 1-46-15-58-35L72 0H24l1-261h50v104c11-23 29-37 60-37zM114-30c31 0 40-27 40-66 0-37-7-63-39-63s-41 28-41 65c0 36 8 64 40 64" id="G"/><path d="M128 0H69L1-190h53L99-40l48-150h52" id="H"/><path d="M123 10C108 53 80 86 19 72V37c35 8 53-11 59-39L3-190h52l48 148c12-52 28-100 44-148h51" id="I"/><g id="h"><use transform="matrix(0.05,0,0,0.05,0,0)" xlink:href="#s"/><use transform="matrix(0.05,0,0,0.05,14,0)" xlink:href="#G"/><use transform="matrix(0.05,0,0,0.05,24.950000000000003,0)" xlink:href="#w"/><use transform="matrix(0.05,0,0,0.05,34.95,0)" xlink:href="#o"/><use transform="matrix(0.05,0,0,0.05,44.95,0)" xlink:href="#p"/><use transform="matrix(0.05,0,0,0.05,51.95,0)" xlink:href="#H"/><use transform="matrix(0.05,0,0,0.05,61.95,0)" xlink:href="#v"/><use transform="matrix(0.05,0,0,0.05,71.95,0)" xlink:href="#G"/><use transform="matrix(0.05,0,0,0.05,82.9,0)" xlink:href="#n"/><use transform="matrix(0.05,0,0,0.05,87.9,0)" xlink:href="#C"/><use transform="matrix(0.05,0,0,0.05,92.9,0)" xlink:href="#n"/><use transform="matrix(0.05,0,0,0.05,97.9,0)" xlink:href="#x"/><use transform="matrix(0.05,0,0,0.05,103.85000000000001,0)" xlink:href="#I"/></g><g id="i"><use transform="matrix(0.05,0,0,0.05,0,0)" xlink:href="#s"/><use transform="matrix(0.05,0,0,0.05,14,0)" xlink:href="#G"/><use transform="matrix(0.05,0,0,0.05,24.950000000000003,0)" xlink:href="#w"/><use transform="matrix(0.05,0,0,0.05,34.95,0)" xlink:href="#o"/><use transform="matrix(0.05,0,0,0.05,44.95,0)" xlink:href="#p"/><use transform="matrix(0.05,0,0,0.05,51.95,0)" xlink:href="#H"/><use transform="matrix(0.05,0,0,0.05,61.95,0)" xlink:href="#v"/><use transform="matrix(0.05,0,0,0.05,71.95,0)" xlink:href="#G"/><use transform="matrix(0.05,0,0,0.05,82.9,0)" xlink:href="#n"/><use transform="matrix(0.05,0,0,0.05,87.9,0)" xlink:href="#C"/><use transform="matrix(0.05,0,0,0.05,92.9,0)" xlink:href="#n"/><use transform="matrix(0.05,0,0,0.05,97.9,0)" xlink:href="#x"/><use transform="matrix(0.05,0,0,0.05,103.85000000000001,0)" xlink:href="#I"/></g><path d="M199 0l-22-63H83L61 0H9l90-248h61L250 0h-51zm-33-102l-36-108c-10 38-24 72-36 108h72" id="J"/><path d="M135-194c53 0 70 44 70 98 0 56-19 98-73 100-31 1-45-17-59-34 3 33 2 69 2 105H25l-1-265h48c2 10 0 23 3 31 11-24 29-35 60-35zM114-30c33 0 39-31 40-66 0-38-9-64-40-64-56 0-55 130 0 130" id="K"/><g id="j"><use transform="matrix(0.05,0,0,0.05,0,0)" xlink:href="#J"/><use transform="matrix(0.05,0,0,0.05,12.950000000000001,0)" xlink:href="#K"/><use transform="matrix(0.05,0,0,0.05,23.900000000000002,0)" xlink:href="#K"/><use transform="matrix(0.05,0,0,0.05,34.85,0)" xlink:href="#C"/><use transform="matrix(0.05,0,0,0.05,39.85,0)" xlink:href="#n"/><use transform="matrix(0.05,0,0,0.05,44.85,0)" xlink:href="#z"/><use transform="matrix(0.05,0,0,0.05,54.85,0)" xlink:href="#v"/><use transform="matrix(0.05,0,0,0.05,64.85,0)" xlink:href="#x"/><use transform="matrix(0.05,0,0,0.05,70.8,0)" xlink:href="#n"/><use transform="matrix(0.05,0,0,0.05,75.8,0)" xlink:href="#B"/><use transform="matrix(0.05,0,0,0.05,86.75,0)" xlink:href="#l"/><use transform="matrix(0.05,0,0,0.05,97.7,0)" xlink:href="#w"/></g></defs></g></svg>